<?xml version="1.0" encoding="utf-8"?>
<!-- Generator: Adobe Illustrator 17.0.0, SVG Export Plug-In . SVG Version: 6.00 Build 0)  -->
<!DOCTYPE svg PUBLIC "-//W3C//DTD SVG 1.1//EN" "http://www.w3.org/Graphics/SVG/1.1/DTD/svg11.dtd">
<svg version="1.1" id="Capa_1" xmlns="http://www.w3.org/2000/svg" xmlns:xlink="http://www.w3.org/1999/xlink" x="0px" y="0px"
	 width="473.241px" height="350.602px" viewBox="0 0 473.241 350.602" enable-background="new 0 0 473.241 350.602"
	 xml:space="preserve">
<g>
	<g>
		<g>
			<path fill="#BB9D6C" d="M119.103,280.381h-7.163v4.213h7.882v3.62h-11.849v-18.591h11.849v3.618h-7.882v3.594h7.163V280.381z"/>
			<path fill="#BB9D6C" d="M139.644,282.289c0,4.611-2.901,6.272-7.288,6.272c-2.008,0-4.463-0.347-5.801-1.141v-4.065
				c0.868,0.496,2.95,1.438,5.405,1.438c2.8,0,3.618-0.868,3.618-2.131c0-1.414-0.619-1.885-2.504-2.133
				c-4.709-0.62-6.519-2.008-6.519-5.651c0-3.372,2.059-5.602,6.966-5.602c2.529,0,4.387,0.445,5.255,0.917v3.842
				c-1.017-0.496-3.073-0.991-4.958-0.991c-2.057,0-3.196,0.644-3.196,1.834c0,1.339,0.718,1.76,2.652,2.032
				C137.388,277.481,139.644,278.322,139.644,282.289z"/>
			<path fill="#BB9D6C" d="M169.252,282.289c0,4.611-2.901,6.272-7.288,6.272c-2.008,0-4.463-0.347-5.801-1.141v-4.065
				c0.868,0.496,2.95,1.438,5.405,1.438c2.8,0,3.618-0.868,3.618-2.131c0-1.414-0.619-1.885-2.504-2.133
				c-4.709-0.62-6.519-2.008-6.519-5.651c0-3.372,2.059-5.602,6.966-5.602c2.529,0,4.387,0.445,5.255,0.917v3.842
				c-1.017-0.496-3.073-0.991-4.958-0.991c-2.057,0-3.196,0.644-3.196,1.834c0,1.339,0.718,1.76,2.652,2.032
				C166.996,277.481,169.252,278.322,169.252,282.289z"/>
			<path fill="#BB9D6C" d="M187.237,280.381h-7.163v4.213h7.882v3.62h-11.849v-18.591h11.849v3.618h-7.882v3.594h7.163V280.381z"/>
			<path fill="#BB9D6C" d="M204.754,288.213l-5.998-11.105l0.098,11.105h-3.916v-18.591h3.916l6,11.105l-0.099-11.105h3.916v18.591
				H204.754z"/>
			<path fill="#BB9D6C" d="M223.582,273.241v14.973h-3.965v-14.973h-4.486v-3.618h12.939v3.618H223.582z"/>
			<path fill="#BB9D6C" d="M234.803,288.213v-18.591h3.967v18.591H234.803z"/>
			<path fill="#BB9D6C" d="M250.241,288.213h-3.967v-18.591h6.322c5.007,0,6.642,2.279,6.642,5.825c0,2.305-0.644,4.065-2.603,5.007
				l3.298,7.759h-4.636l-2.504-6.966h-2.552V288.213z M250.241,277.653h2.701c1.76,0,1.984-1.189,1.984-2.205
				c0-1.042-0.224-2.207-1.984-2.207h-2.701V277.653z"/>
			<path fill="#BB9D6C" d="M279.06,282.289c0,4.611-2.901,6.272-7.288,6.272c-2.008,0-4.463-0.347-5.801-1.141v-4.065
				c0.868,0.496,2.95,1.438,5.405,1.438c2.8,0,3.618-0.868,3.618-2.131c0-1.414-0.619-1.885-2.504-2.133
				c-4.709-0.62-6.519-2.008-6.519-5.651c0-3.372,2.059-5.602,6.966-5.602c2.529,0,4.387,0.445,5.255,0.917v3.842
				c-1.017-0.496-3.073-0.991-4.958-0.991c-2.057,0-3.196,0.644-3.196,1.834c0,1.339,0.718,1.76,2.652,2.032
				C276.804,277.481,279.06,278.322,279.06,282.289z"/>
			<path fill="#BB9D6C" d="M297.046,280.381h-7.163v4.213h7.882v3.62h-11.849v-18.591h11.849v3.618h-7.882v3.594h7.163V280.381z"/>
			<path fill="#BB9D6C" d="M314.657,269.623h6.668c4.71,0,6,2.23,6,5.255c0,1.586-0.794,2.874-2.008,3.52
				c1.388,0.47,2.552,1.834,2.552,4.139c0,3.222-1.462,5.676-6.445,5.676h-6.767V269.623z M321.176,272.993h-2.552v3.991h2.552
				c1.637,0,1.934-1.14,1.934-1.983C323.11,274.134,322.837,272.993,321.176,272.993z M318.623,284.841h2.751
				c1.661,0,2.281-0.966,2.281-2.33c0-1.387-0.646-2.305-2.281-2.305h-2.751V284.841z"/>
			<path fill="#BB9D6C" d="M334.776,288.213v-18.591h3.967v18.591H334.776z"/>
			<path fill="#BB9D6C" d="M357.378,280.381h-7.163v4.213h7.882v3.62h-11.849v-18.591h11.849v3.618h-7.882v3.594h7.163V280.381z"/>
			<path fill="#BB9D6C" d="M374.894,288.213l-5.998-11.105l0.098,11.105h-3.916v-18.591h3.916l6,11.105l-0.099-11.105h3.916v18.591
				H374.894z"/>
		</g>
	</g>
	<g>
		<g>
			<path fill="#BB9D6C" d="M194.718,85.085c-0.57,2.093,0.051,4.531,0.153,6.815c0.008,0.169,0.104,0.333,0.143,0.503
				c0.37,1.601-0.882,1.673-1.797,1.869c-1.294,0.277-1.963-0.479-2.723-1.605c-1.658-2.456-2.525-5.1-2.581-8.022
				c-0.017-0.87,0.116-1.374-0.837-0.676c-1.025,0.75-1.914,1.747-3.017,2.323c-5.408,2.827-11.216,4.591-17.043,6.143
				c-3.571,0.952-7.364,1.063-10.726-1.142c-0.618-0.405-1.15-1.209-1.371-1.941c-0.435-1.443,0.994-1.035,1.532-1.18
				c1.557-0.417,3.189-0.529,4.779-0.827c0.409-0.077,0.775-0.401,1.16-0.611c-0.207-0.244-0.381-0.53-0.626-0.724
				c-1.353-1.069-2.599-2.042-2.491-4.199c0.09-1.789-0.44-3.584,0.483-5.325c2.432-4.592,4.366-9.535,8.782-12.681
				c0.262-0.186,0.902-0.937-0.348-1.245c-4.192-1.033-8.577-1.403-12.445-3.621c-3.206,0.661-5.281-1.84-7.724-3.119
				c-2.906-1.522-3.289-3.792-1.904-6.7c1.462-3.067,4.056-4.774,6.974-5.752c3.456-1.158,7.034-2.172,10.631-2.591
				c5.644-0.657,11.318-1.995,17.046-0.348c1.647,0.474,2.348-0.415,1.881-2.024c-0.438-1.51-1.083-2.986-1.297-4.527
				c-0.227-1.635-0.176-3.166-2.127-3.814c-1.112-0.37-1.157-0.855,0.131-1.423c0.952-0.42,1.514-1.84,2.466-2.189
				c3.39-1.241,6.794-2.454,10.552-1.903c5.267,0.774,10.303,2.357,15.187,4.418c2.406,1.016,4.372,2.883,6.489,4.444
				c2.676,1.974,4.889,4.2,6.875,6.8c0.371,0.486,0.854,0.883,1.286,1.32c0.041-0.537,0.098-1.075,0.122-1.614
				c0.104-2.428-0.052-4.903,0.363-7.273c0.44-2.512,3.942-3.876,6.245-2.798c3.136,1.467,6.009,3.324,9.516,4.216
				c4.279,1.089,7.634,4.408,10.161,8.185c1.704,2.547,4.065,4.724,4.775,7.946c0.039,0.179,1.321,0.4,1.606,0.131
				c1.741-1.648,3.483-3.329,4.99-5.2c1.567-1.946,4.016-2.816,5.693-2.12c2,0.828,4.236,0.717,6.022,1.88
				c1.622,1.056,3.145,2.317,4.561,3.656c3.228,3.053,6.117,6.548,6.929,11.038c1.19,6.587-0.12,13.038-2.413,19.24
				c-1.305,3.528-3.717,6.318-6.174,9.045c-0.251,0.278-0.478,0.579-0.717,0.87c0.276,0.184,0.546,0.519,0.828,0.532
				c6.457,0.286,12.903,1.28,19.378,0.19c2.86-0.482,5.738-0.878,8.623-1.167c1.228-0.123,2.149,0.512,2.561,1.887
				c0.415,1.387-0.027,2.424-1.121,3.027c-1.72,0.947-3.484,1.913-5.343,2.469c-6.232,1.864-12.556,3.112-19.113,2.303
				c-1.555-0.192-3.214-0.403-4.702-0.05c-2.273,0.538-0.86,2.907-1.563,4.328c-1.503,3.039-3.845,5.406-6.346,7.343
				c-6.548,5.07-13.764,8.833-21.783,11.022c-3.51,0.958-6.452,0.702-9.374-1.327c-1.442-1.001-0.288-1.04,0.414-1.398
				c0.848-0.432,1.57-1.184,2.448-1.487c1.196-0.413,1.701-0.966,1.199-2.256c-1.329-3.416-0.51-6.574,1.106-9.645
				c2.102-3.996,3.827-8.253,7.798-10.861c0.624-0.41,1.197-1.508,1.152-2.246c-0.061-1.01-0.736-1.98-1.148-2.967
				c-0.425,0.372-0.928,0.684-1.262,1.129c-0.797,1.062-6.935,7.52-7.812,7.768c-3.187,0.902-5.264,4.124-8.738,4.372
				c-3.397,2.862-7.468,2.925-11.533,2.873c-3.661-0.046-5.806-1.51-6.45-4.886c-0.536-2.808-1.914-5.41-1.85-8.362
				c0.01-0.46-0.066-1.605-1.068-0.708c-0.832,0.744-1.8,1.447-2.336,2.393c-1.064,1.877-2.579,2.937-4.53,3.529
				c-2.282,0.693-4.605,1.296-6.802,2.212c-1.497,0.624-2.603,0.137-3.739-0.63c-0.368-0.25-0.844-0.748-0.815-1.092
				c0.032-0.379,0.531-0.815,0.926-1.048c2.495-1.472,5.43-2.45,7.44-4.431c3.646-3.593,8.322-6.237,10.532-11.265
				c3.551-2.054,4.122-6.171,5.775-9.437c0.632-1.248,1.548-3.49,0.485-5.194c-0.571-0.915-1.704-1.591-2.721-2.05
				c-1.843-0.832-3.256,0.152-4.895,1.177c-5.02,3.14-9.02,7.069-10.713,12.057C197.126,80.091,195.435,82.447,194.718,85.085z
				 M264.635,50.483c-0.935-0.62-1.416-0.309-1.941,0.643c-1.895,3.441-2.402,6.936-2.394,11.01c0.011,5.41,1.15,10.36,2.714,15.33
				c0.651,2.07,1.787,3.974,2.476,6.035c0.472,1.411,1.645,1.677,2.642,2.148c1.515,0.715,1.251-1.198,1.968-1.645
				c2.473-1.54,3.094-3.78,3.616-6.643c0.391-2.148,1.487-4.378,1.994-6.653c0.315-1.412,0.72-2.949,0.476-4.314
				c-0.428-2.393-1.165-4.765-2.069-7.019c-0.862-2.151-5.653-6.792-7.689-7.9C265.829,51.147,265.203,50.861,264.635,50.483z
				 M228.842,36.397c1.673,5.453,1.425,11.496,4.844,16.434c0.652,0.942,0.55,2.412,1.125,3.444c1.717,3.084,3.359,6.25,6.051,8.619
				c0.929,0.818,2.305,2.549,2.675,2.341c1.755-0.982,3.64-2.222,4.677-3.897c0.829-1.339,0.983-3.558,0.598-5.174
				c-0.984-4.132-1.944-8.378-4.291-11.964c-1.385-2.116-3.024-4.254-5.015-5.704c-2.737-1.995-5.901-3.375-8.917-4.948
				c-0.426-0.222-1.047-0.049-1.418-0.056C228.947,36.089,228.803,36.273,228.842,36.397z M194.358,60.607
				c0.104-0.237-0.791-1.334-1.015-1.269c-4.644,1.343-9.336,2.619-13.544,5.143c-1.894,1.137-3.527,2.731-5.413,3.882
				c-1.973,1.204-2.493,3.897-4.784,4.694c-1.914,3.958-4.433,7.634-5.123,12.159c-0.166,1.09,0.083,1.119,0.905,0.832
				c7.987-2.786,15.244-6.718,21.554-12.704c2.262-2.145,2.881-4.926,4.44-6.772C192.519,64.347,193.521,62.516,194.358,60.607z
				 M190.089,32.96c1.97,5.052,4.554,9.658,8.3,13.615c2.534,2.678,5.306,5.09,7.984,7.567c1.311,1.212,3.842,1.044,5.83,1.45
				c1.382,0.281,2.8,0.394,4.164,0.737c1.085,0.273,0.959-0.123,0.8-0.952c-1.768-9.202-7.229-15.35-14.904-19.938
				c-3.194-1.909-6.826-2.391-10.036-4.116c-0.601-0.323-1.571,0.083-2.478,0.161C189.879,32.067,189.924,32.538,190.089,32.96z
				 M217.465,96.838c0.13,2.071,0.927,2.637,2.956,2.028c7.725-2.319,13.953-7.122,19.695-12.708
				c0.351-0.341,0.459-0.932,0.734-1.371c0.641-1.022,0.808-1.79-0.561-2.412c-1.324-0.602-2.338-1.523-3.326-2.803
				c-1.642-2.127-4.497-2.237-6.84-0.805c-2.437,1.489-4.796,3.13-7.092,4.844c-1.14,0.852-2.061,2.014-2.391,2.344
				C219.494,88.182,217.405,95.887,217.465,96.838z M177.308,47.341c-7.825-0.205-15.716-0.778-23.33,1.903
				c-0.389,0.137-0.723,0.437-1.083,0.661c0.368,0.315,0.688,0.77,1.112,0.924c4.355,1.582,8.862,2.558,13.383,3.464
				c1.079,0.216,2.167,0.416,3.261,0.511c2.032,0.178,4.08,0.46,6.103,0.351c1.935-0.104,3.843-0.687,5.773-0.989
				c1.1-0.172,2.227-0.15,3.328-0.316c0.664-0.1,1.301-0.393,1.95-0.599c-0.437-0.446-0.886-0.879-1.305-1.341
				c-0.861-0.948-1.706-1.912-2.407-2.701C181.62,48.496,179.477,47.398,177.308,47.341z M265.579,97.225
				c0.426-1.136-0.225-0.761-0.917-0.824c-0.933-0.084-1.982-0.444-2.704-1.042c-2.172-1.796-4.029-0.968-5.629,0.679
				c-3.828,3.94-8.156,7.437-10.525,12.701c-0.732,1.628-1.179,3.64-3.266,4.264c-0.188,0.056-0.241,0.591-0.357,0.903
				c0.363,0.084,0.765,0.317,1.083,0.228c3.945-1.094,7.589-2.764,10.768-5.529c2.626-2.284,5.806-3.766,8.193-6.521
				c0.829-0.957,1.703-1.916,2.42-3.004C264.959,98.464,265.337,97.871,265.579,97.225z M260.723,83.721
				c-0.856-1.572-1.606-3.218-2.59-4.7c-1.713-2.582-2.311-5.582-3.271-8.454c-0.325-0.97-1.019-1.369-1.84-0.488
				c-0.443,0.475-0.612,1.315-1.116,1.62c-1.167,0.706-2.462,1.187-3.706,1.759c0.646,1.322,1.228,2.684,1.966,3.949
				c0.393,0.671,0.975,1.308,1.617,1.722c1.281,0.826,2.662,1.489,4.001,2.219c-0.015,0.034-0.03,0.068-0.044,0.102
				C257.401,82.206,259.062,82.963,260.723,83.721z"/>
		</g>
	</g>
	<g>
		<g>
			<path fill="#594E41" d="M237.292,325.256c3.235,3.575,10.579,4.258,9.84-7.636s-8.566-4.557-9.223-2.059
				C237.252,318.06,234.009,321.629,237.292,325.256z"/>
			<path fill="#594E41" d="M262.396,313.301c3.001-3.774,2.48-11.131-9.135-8.466c-11.615,2.665-3.103,9.193-0.53,9.435
				C255.302,314.512,259.351,317.13,262.396,313.301z"/>
			<path fill="#594E41" d="M224.844,305.019c-3.054,3.731-2.638,11.094,9.014,8.595s3.233-9.148,0.665-9.427
				C231.954,303.909,227.943,301.233,224.844,305.019z"/>
		</g>
	</g>
	<g>
		<g>
			<g>
				<path fill="#594E41" d="M394.732,289.512c-5.389,0-9.774-4.385-9.774-9.774s4.385-9.774,9.774-9.774
					c5.389,0,9.774,4.385,9.774,9.774S400.121,289.512,394.732,289.512z M394.732,272.468c-4.009,0-7.27,3.261-7.27,7.27
					c0,4.009,3.261,7.27,7.27,7.27s7.27-3.261,7.27-7.27C402.002,275.729,398.741,272.468,394.732,272.468z"/>
			</g>
		</g>
		<g>
			<g>
				<path fill="#594E41" d="M393.697,283.692h-1.717v-8.049h2.736c2.168,0,2.876,0.987,2.876,2.522c0,0.998-0.279,1.76-1.127,2.168
					l1.427,3.359h-2.007l-1.084-3.015h-1.105V283.692z M393.697,279.12h1.17c0.762,0,0.859-0.515,0.859-0.955
					c0-0.451-0.097-0.955-0.859-0.955h-1.17V279.12z"/>
			</g>
		</g>
	</g>
	<g>
		<path fill="#594E41" d="M147.361,147.054c-0.417,0.049-1.042,0.122-2.067,0.419c0.193-0.2,0.178-0.375-0.015-0.175
			c0,0-0.209,0.025-0.194,0.2l-21.448,2.506c-5.415,0.633-50.811,4.183-52.811,5.261l-0.016-0.167
			c-0.193,0.191-0.401,0.215-0.417,0.048c0.175-0.359-0.033-0.334-0.24-0.31l0.033,0.334c-0.193,0.191-0.177,0.358-0.16,0.525
			l0.226,0.142c-0.801,0.43-1.36,1.169-1.486,2.027c-0.24-0.31-0.45-0.286-0.657-0.263c-0.4,0.214-0.384,0.381,0.049,0.5
			l-0.033-0.333l0.45,0.286c-0.193,0.191-0.176,0.358-0.16,0.524c-0.158,0.523-0.092,1.19-0.251,1.713
			c0.181,1.832,0.416,6.352,1.156,13.846l0.329,3.331c0,0-0.223-0.146-0.414,0.04c-0.108,1.019-0.267,1.538-0.075,1.352
			c0.207-0.02,0.43,0.126,0.654,0.273c0.192-0.187,0.176-0.353,0.176-0.353l0.066,0.666c0.578,1.627,1.315,2.735,2.435,3.474
			c0.016,0.166,0.016,0.166,0.24,0.315c-0.016-0.167-0.016-0.167,0.192-0.186c0.894,0.592,2.394,0.961,4.053,0.81
			c0.223,0.149,0.432,0.13,0.845,0.092l0.622-0.057c0.241,0.316,0.273,0.652-0.126,0.857c0.877,0.429,1.292,0.392,1.675,0.019
			l-0.83,0.075c0.208-0.019,0.176-0.355-0.097-1.007c2.281-0.207,3.748-0.171,4.785-0.265c0.016,0.169,0.048,0.506,0.255,0.487
			c-0.016-0.168,0.829-0.075,0.829-0.075s-0.016-0.168,0.192-0.187l-0.032-0.338l-1.669,0.157c10.158-0.922,7.778-1.223,8.547,7.15
			c0.314,3.417,0.772,6.594,0.914,8.131c0.026,4.813-2.822,4.349-7.368,4.683l-0.032-0.339c-0.43-0.138-0.636-0.123-0.844-0.108
			c0,0-0.19,0.184-0.158,0.523l1.267-0.198c-0.43-0.138-0.446-0.307-0.414,0.03c-2.05,0.32-3.704,0.441-4.945,0.532
			c-0.222-0.152-0.255-0.488-0.461-0.473c0.016,0.168,0.049,0.503-0.159,0.518l-1.636,0.289c-1.448,0.106-2.431,0.682-2.986,1.396
			l-0.131-1.336c0.016,0.167-0.414,0.03-0.844-0.106c0.148,1.501,0.197,2.002,0.388,1.819l0.016,0.168
			c-0.365,0.53-0.729,1.06-0.886,1.575c-0.315,1.029-0.406,2.209-0.48,3.556l-0.414,0.028c-0.346,0.693-0.107,1.013,0.354,1.485
			l3.076,31.143c0.395,3.997,0.216,6.342-0.301,7.36l-0.559-1.484c-0.426-0.152-0.442-0.318-0.492-0.817
			c-0.395,0.18-0.945,0.865-0.5,1.184c-0.033-0.333-0.033-0.333,0.188-0.173l0.254,0.492l0.19-0.174
			c0.172-0.338,0.172-0.338,0.205-0.007c0.205-0.007,0.221,0.16,0.033,0.333c-0.205,0.007-0.411,0.013-0.395,0.179l0.049,0.499
			c0.033,0.333,0.049,0.499,0.272,0.659l0.205-0.006c-0.754,0.69-3.989,1.289-9.528,1.459c-11.284,0.345-11.505,0.189-12.425-8.622
			l-1.975-18.926c0.413-0.023,0.841,0.117,1.304,0.584c-0.29-0.804-0.549-1.283-1.184-1.412c-0.188,0.176-0.188,0.176-0.171,0.338
			l-0.375-3.589l0.619-0.037l-0.566-1.444l-0.189,0.175l-0.255-2.447l0.825-0.052c-0.411,0.026-0.636-0.124-0.67-0.451
			c0.173-0.34-0.068-0.652-0.274-0.639l-2.571-24.637c0.258,0.472,0.309,0.961,0.343,1.288c0.415-0.035,0.604-0.216,0.347-0.688
			c-0.241-0.309-0.275-0.635,0.122-0.834c0,0-0.017-0.164-0.224-0.146l-0.034-0.326c-0.207,0.018-0.415,0.036-0.639-0.11
			l-0.051-0.49l0.19-0.181c0,0-0.017-0.163-0.224-0.145l-0.187-1.795c0.415-0.037,0.605-0.219,0.605-0.219
			c-0.224-0.144-0.258-0.471-0.568-1.432l-0.207,0.019l-2.809-26.921c0.242,0.302,1.058,0.045,1.041-0.119
			c-0.209,0.024-0.451-0.279-0.485-0.606c-0.259-0.466-0.293-0.792-0.71-0.744l-0.272-2.61l0.208-0.024l-0.361-1.444l-0.613-5.874
			c-0.272-2.61-0.46-4.405-0.32-5.084c-0.147-3.455,0.986-4.764,5.58-5.373c1.444-0.358,6.456-1.023,15.019-2.159l64.28-6.313
			c0.208-0.028,0.418-0.056,0.434,0.117c0.015,0.173,0.015,0.173,0.224,0.146c0.015,0.173,0.015,0.173,0.224,0.146l-0.193,0.2
			l0.208-0.028l0.21-0.028l0.611-0.255c0,0-0.225-0.146-0.256-0.492l13.156-1.746c4.819-0.462,6.324-0.128,7.337,1.875
			c-0.416,0.054,0.104,1.233,0.282,0.853c0.284,0.854,0.373,1.911,0.462,2.968l0.282,0.854l-0.208,0.026
			c0.015,0.176,0.03,0.352,0.267,0.679C151.483,141.055,152.507,145.739,147.361,147.054z"/>
		<path fill="#594E41" d="M157.737,238.125c0.586,3.312,0.841,6.513,0.604,9.601c-0.076,3.081-4.091,3.092-7.456,3.209l-4.486,0.155
			c-0.342-0.242-0.512-0.363-0.661-0.231c0.16-0.006,0.17,0.122,0.021,0.254l-3.845,0.133l-0.053-0.631
			c-0.01-0.126-0.01-0.126-0.161,0.006c0,0-0.16,0.006-0.17-0.12c0.16-0.006,0.321-0.011,0.31-0.137l-0.481,0.017
			c0.011,0.126,0.181,0.246,0.351,0.367c0,0,0.011,0.126-0.139,0.257c0,0,0.16-0.006,0.342,0.242l-3.845,0.133
			c-0.202-0.497-0.385-0.743-0.245-1.001c-0.332-0.114-0.502-0.234-0.363-0.491c-0.481,0.017-0.759,0.531-0.577,0.777
			c-0.011-0.125-0.021-0.252,0.16-0.006c0.192,0.371,0.342,0.24,0.332,0.114l0.139-0.256c0.011,0.125,0.021,0.251,0.181,0.245
			l0.021,0.252c-0.16,0.006-0.309,0.137-0.47,0.142l0.021,0.252l-12.015,0.416c-0.183-0.244-0.194-0.368-0.205-0.492
			c0.011,0.124,0.011,0.124-0.309,0.135c0.171,0.118,0.182,0.244,0.192,0.368l-7.85,0.272c-0.171-0.118-0.171-0.118-0.011-0.123
			c-0.16,0.006-0.16,0.006-0.31,0.134l-0.64,0.022c-1.282,0.044-1.923,0.067-2.574-0.034l-0.961,0.033
			c-0.033-0.369-0.377-0.605-0.548-0.722c-0.31,0.134-0.287,0.38-0.265,0.626c-0.652-0.1-1.143-0.206-1.316-0.324
			c-0.216-0.608-0.57-0.965-1.073-1.194c-0.137,0.252-0.126,0.374-0.115,0.496c-1.062-1.07-1.335-2.29-1.761-6.95l-0.898-9.812
			l0.803-0.04c0.255-0.753-0.112-1.227-0.926-1.308l-0.191-2.085c0.954-0.173,0.564-0.893-0.123-1.348l-0.202-2.208
			c0.16-0.009,0.138-0.255,0.104-0.623l-0.16,0.009l-0.247-2.698c0.299-0.265,0.276-0.509-0.067-0.736l-0.527-5.765l0.161-0.01
			c-0.011-0.122-0.022-0.245-0.194-0.358l-0.022-0.245l0.172,0.112c0.15-0.133,0.138-0.256,0.138-0.256
			c-0.011-0.123-0.183-0.235-0.344-0.224l-1.066-11.651c0.184,0.234,0.356,0.344,0.217,0.602l1.303,0.027
			c-0.011-0.122,0.139-0.257,0.311-0.146l-1.081-1.156l0.485-0.036c-0.69-0.442-0.885-0.798-0.885-0.798
			c-0.151,0.135-0.14,0.258-0.118,0.503c0.011,0.123,0.034,0.368-0.127,0.38c0.496,0.086,0.668,0.197,0.679,0.32l-0.322,0.024
			c-0.174-0.111-0.335-0.099-0.496-0.086l-0.269-2.943c0.172,0.11,0.172,0.11,0.184,0.233s0.184,0.233,0.335,0.098
			c-0.011-0.123-0.011-0.123,0.15-0.135c-0.022-0.245-0.034-0.368-0.206-0.479c-0.174-0.11-0.185-0.233-0.034-0.368
			c0.022,0.246,0.022,0.246,0.184,0.233c-0.172-0.11-0.045-0.491,0.071-0.995c0,0-0.011-0.122-0.184-0.233l-0.172-0.11l-0.451,0.406
			l-0.123-1.349c0.485-0.039,0.635-0.174,0.785-0.31c-0.322,0.026-0.496-0.084-0.345-0.219c-0.011-0.123-0.011-0.123,0.15-0.136
			c-0.184-0.232-0.38-0.587-0.714-0.684l-0.011-0.123c0.15-0.135,0.15-0.135,0.311-0.148c-0.011-0.123-0.184-0.233-0.356-0.342
			l-0.112-1.227l0.161-0.013c0.15-0.136,0.128-0.381,0.116-0.504c-0.011-0.123-0.184-0.232-0.334-0.096l-0.247-2.698
			c0.323-0.028,0.15-0.136-0.011-0.122l0.161-0.014c-0.011-0.123-0.022-0.246,0.15-0.137c0.163-0.014,0.163-0.014,0.152-0.137
			c-0.163,0.014-0.324,0.028-0.497-0.081l-1.686-18.12c-0.561-6.132-0.265-8.18,7.699-9.033l1.299-0.139
			c0.162-0.017,0.162-0.017,0.173,0.106c-0.162,0.017-0.313,0.158-0.464,0.299c0.173,0.106,0.324-0.035,0.801-0.21l-0.022-0.248
			l17.552-1.88c0.409,0.97,0.703,0.559,0.324-0.035l16.577-1.776c0.01,0.127-0.143,0.272-0.436,0.689
			c0.162-0.017,0.334,0.092,0.488-0.052c0.152-0.145,0.131-0.399,0.11-0.654c3.098-0.203,5.068-0.156,5.77,0.414
			c1.401,1.142,1.744,9.197,1.653,12.173c-0.079,3.102-3.504,3.172-8.369,3.638l-9.081,0.869l0.628-0.314l-0.639,0.188
			c0.304-0.283-0.074-0.882-0.366-0.473c0.323-0.031,0.172,0.11,0.011,0.126c-0.152,0.142,0.021,0.253,0.204,0.489l-1.784,0.171
			c-0.172-0.111-0.334-0.095-0.486,0.047l-1.783,0.171l-0.032-0.377l-0.325,0.031c0.184,0.235,0.195,0.361,0.032,0.377l-2.269,0.217
			c-1.449,0.265-2.736,0.514-3.849,0.872c-1.741,0.67-2.767,2.024-2.918,4.049c-0.162,0.015-0.14,0.264-0.118,0.514l0.162-0.015
			l0.032,0.374c-0.183-0.235-0.345-0.22-0.508-0.205c-0.151,0.14,0.033,0.374,0.368,0.469l0.195,2.244
			c0.325,3.74,0.519,5.725,0.93,8.578c0.108,1.247,0.529,2.343,1.068,2.928c0.043,0.499,0.237,0.861,0.119,1.372
			c0.161-0.013,0.333,0.1,0.333,0.1c0.173,0.112,0.334,0.1,0.496,0.087c-0.172-0.113-0.194-0.362-0.419-1.098
			c0.689,0.448,1.367,0.773,2.186,0.835l-0.302,0.275c-0.161,0.012-0.172-0.112-0.485,0.038c0,0,0.173,0.113,0.334,0.1
			c0.172,0.113,0.334,0.1,0.334,0.1s-0.011-0.125,0.14-0.263l0.15-0.137c0.819,0.062,1.799,0.112,2.769,0.037l0.969-0.075
			c0.204,0.489,0.236,0.866,0.096,1.129l0.646-0.049l-0.246-0.991l3.715-0.287c0,0,0.011,0.126,0.377,0.604l0.324-0.025
			c-0.173-0.114-0.184-0.239-0.376-0.604l1.615-0.125c0.021,0.252,0.032,0.378,0.194,0.366l0.151-0.139
			c0.161-0.012,0.151-0.139,0.14-0.264l1.939-0.15c0.183,0.24,0.366,0.48,0.376,0.607c0.161-0.012,0.313-0.151,0.474-0.164
			c-0.01-0.126-0.01-0.126-0.172-0.114l-0.162,0.012l0.292-0.404c0.98,0.051,1.465,0.014,1.13-0.087
			c0.819,0.064,1.627,0.001,2.122,0.091l0.01,0.127l0.322-0.025c0.819,0.064,1.496,0.395,2.022,0.866
			c0.021,0.254,0.041,0.508,0.203,0.495l0.661,2.123l0.093,1.143l-0.395-0.866l-0.484,0.036c0.182,0.242,0.384,0.738,0.426,1.246
			l0.484-0.035l0.249,3.049c0,0,0.01,0.127-0.14,0.266l0.161-0.011c0.067,2.805,0.342,4.192-0.553,5.145
			c-0.363-0.487-0.384-0.74-0.073-0.889l-0.322,0.021c-0.171-0.116-0.333-0.105-0.333-0.105c0.052,0.634,0.083,1.015,0.276,1.385
			c-0.452,0.412-1.088,0.581-1.893,0.633c-0.01-0.126-0.183-0.243-0.344-0.232l0.021,0.253l-0.161,0.01
			c-0.473,0.158-1.763,0.242-3.536,0.358c-0.011-0.126,0.131-0.389,0.281-0.526c-0.655-0.084-0.967,0.063-0.925,0.568l-4.029,0.262
			l-3.697,0.367l-0.032-0.376l-0.484,0.032l0.032,0.376c-3.062,0.199-4.771,1.063-5.446,2.612l-0.172-0.115
			c-0.151,0.136-0.13,0.384-0.097,0.759c-0.503,1.661-0.404,4.663-0.089,8.276l0.011,0.124c-0.162,0.009-0.173-0.115-0.483,0.027
			c0.16-0.009,0.353,0.356,0.73,0.962l0.184,2.119c-0.011-0.125-0.182-0.241-0.515-0.348c0.58,1.096,0.773,1.462,0.612,1.47
			l0.076,0.872c0.204,0.49,0.247,0.988,0.29,1.488c-0.011-0.125-0.171-0.117-0.331-0.109c0.214,0.616,0.258,1.114,0.269,1.239
			c0.333,0.108,0.653,0.093,0.653,0.093c0.75,1.216,2.272,2.022,4.22,2.18c0.194,0.368,0.226,0.743,0.269,1.245
			c0.16-0.007,0.309-0.141,0.471-0.148c0.128-0.383-0.226-0.744-0.578-1.104c0.813,0.088,1.616,0.05,2.258,0.02l1.446-0.068
			c0.193,0.369,0.215,0.619,0.225,0.746c0.16-0.007,0.32-0.015,0.471-0.149c0,0,0.15-0.133,0.32-0.015l-0.053-0.628
			c1.136,0.072,2.26,0.02,3.544-0.041c0.021,0.252,0.032,0.378-0.107,0.638l0.482-0.022c-0.011-0.127,0.128-0.386,0.107-0.638
			l3.694-0.174c0.181,0.246,0.343,0.238,0.322-0.015l0.642-0.03c0.16-0.008,0.171,0.119,0.021,0.253l0.01,0.126
			c0.171,0.119,0.322-0.015,0.29-0.395l4.497-0.211c2.569-0.121,4.175-0.196,5.149-0.114
			C156.26,235.754,157.294,236.604,157.737,238.125z"/>
		<path fill="#594E41" d="M230.739,234.003l0.265,4.206l0.041,0.648l0.265,4.206l-0.18,0.17c0.01,0.161,0.01,0.161,0.21,0.315
			l0.061,0.971c-0.057,2.11-1.499,3.458-4.141,3.875l-0.381,0.013c-0.021-0.323-0.031-0.484-0.221-0.477l0.031,0.484
			c-1.131,0.201,1.119,0.431-0.402,0.484l-49.119,1.712c-8.573,0.145-8.978-0.148-9.51-7.051l-2.742-35.582l0.622,0.573l0.191-0.013
			l-0.047-0.613l-0.453-0.894l-0.372,0.18l-0.957-12.422c0.024,0.307,0.432,0.582,0.635,0.721c-0.659-1.028-0.885-1.472-0.694-1.488
			l-0.296-3.835c0.059,0.767,0.274,1.058,0.274,1.058c0.564-0.202,0.29-1.26-0.31-1.518l-0.213-2.761
			c0.012,0.154,0.203,0.137,0.397,0.12c-0.024-0.307,0.133-0.784,0.085-1.398c-0.373,0.187-0.577,0.05-0.612-0.41l-0.177-2.301
			l0.962-0.086c-0.205-0.136-0.421-0.426-0.648-0.869c-0.024-0.307-0.241-0.596-0.444-0.732l-0.236-3.067
			c0.012,0.154,0.204,0.136,0.204,0.136s-0.012-0.154,0.194-0.018c0.192-0.018,0.384-0.036,0.372-0.189
			c-0.431-0.578-0.455-0.885-0.443-0.731c-0.194,0.018-0.397-0.117-0.397-0.117l-0.284-3.681c0.216,0.289,0.613,0.404,0.987,0.214
			c-0.409-0.27-0.625-0.558-0.831-0.693l0.374-0.191c0,0-0.035-0.46-0.504-1.497l-0.192,0.019l-0.13-1.687l0.204,0.134
			c0,0,0.182-0.173,0.374-0.192l-0.433-0.575c-0.024-0.307-0.024-0.307,0.17-0.326c-0.194,0.02-0.398-0.115-0.41-0.268l-0.272-3.528
			c0.192-0.02,0.169-0.327,0.157-0.48l-0.204-0.134l-0.26-3.375c0.012,0.154,0.204,0.133,0.204,0.133
			c0.17-0.327,0.339-0.655,0.327-0.808c-0.204-0.133-0.387,0.042-0.375,0.195c0.012,0.154-0.181,0.174-0.181,0.174l-0.047-0.613
			l0.002-10.224l-0.095-1.227l0.387-0.043c-0.206-0.132-0.218-0.286-0.241-0.592c-0.012-0.154-0.035-0.46-0.228-0.439l-0.71-9.209
			l0.58-0.069c-0.411-0.261-0.627-0.545-0.639-0.698c0.193-0.023,0.193-0.023-0.024-0.307l0.193-0.023
			c-0.012-0.154-0.024-0.307-0.217-0.284l-0.201-2.607c0.205,0.13,0.399,0.107,0.581-0.07c-0.388,0.047-0.797-0.213-0.217-0.283
			c-0.23-0.437-0.254-0.743-0.071-0.921c-0.195,0.024-0.195,0.024-0.399-0.106c0.087-1.404,0.21-2.349,0.538-3.164
			c0.522-0.84,1.649-1.447,3.369-1.973c-0.135,0.794,0.288,1.207,0.893,1.442c-0.047-0.616-0.094-1.232-0.312-1.515
			c0.957-0.276,2.313-0.447,4.251-0.692l0.012,0.155l0.386-0.049l0.193-0.024c-0.375,0.203-0.579,0.073-0.51,1
			c0.193-0.024,0.398,0.106,0.398,0.106c0.205,0.131,0.399,0.106,0.593,0.082l-0.081-1.083c-0.182,0.179-0.193,0.024-0.216-0.285
			l4.261-0.537c0,0,0.205,0.131,0.228,0.441s-0.159,0.49-0.159,0.49c0.011,0.155,0.205,0.131,0.592,0.083
			c0.193-0.024,0.388-0.049,0.399,0.106l-0.092-1.242c1.367-0.015,2.336-0.137,3.11-0.235c0.193-0.024,0.592,0.082,1.174,0.009
			c0.205,0.132,0.216,0.288,0.227,0.443c0,0-0.204-0.131-0.398-0.107l0.034,0.467l0.386-0.048c0.206,0.131,0.206,0.131,0.399,0.107
			l-0.216-0.287l0.967-0.121c-0.193,0.024-0.204-0.132-0.204-0.132c0.592,0.083,0.797,0.215,1.001,0.347l0.011,0.156l0.206,0.132
			c-0.183,0.18-0.365,0.36-0.354,0.516c0,0,0.193-0.024,0.399,0.107c0,0,0.193-0.024,0.011,0.156l-0.365,0.36l0.204,0.132
			c0.376-0.204,0.603,0.24-0.182,0.18c0.023,0.312,0.41,0.265,1.389,0.301l0.011,0.156c0.056,0.781,0.319,1.694,0.409,2.944
			l-0.388,0.047c-0.011-0.156-0.023-0.313,0.17-0.336l-0.42-0.422c-0.023-0.312-0.228-0.445-0.433-0.577
			c0.216,0.288,0.034,0.468-0.159,0.492c0,0-0.206-0.133-0.195,0.024c0.251,0.756,0.285,1.225,0.124,1.716l1.161-0.14
			c-0.193,0.023-0.011-0.156,0.149-0.648l0.756,10.472c-0.41-0.269-0.861-6.521-0.691-6.857c0,0-0.204-0.133-0.215-0.289
			l-1.16,0.137l1.145,7.742l0.772-0.087c-0.204-0.134-0.023-0.312,0.16-0.49l0.225,3.124c-0.773,0.085-0.989-0.205-0.841-0.851
			c0.183-0.177,0.172-0.334,0.172-0.334c-0.557,0.376-0.74,0.554-0.728,0.71c0.443,0.737,0.488,1.362,0.307,1.539
			c0.204,0.135,0.408,0.27,0.238,0.603c0.193-0.021,0.398,0.114,0.398,0.114c0.204,0.135,0.204,0.135,0.396,0.114
			c-0.011-0.156,0.172-0.333,0.149-0.645l0.203,2.811c0,0-0.194,0.021-0.409-0.271c-0.215-0.291-0.409-0.271-0.59-0.094
			c0.192-0.021,0.204,0.136,0.023,0.313c-0.17,0.333-0.147,0.644-0.147,0.644c0.407,0.272,0.321,9.43-0.042,9.783
			c0.385-0.041,0.396,0.116,0.215,0.292c0,0,0.386-0.041,0.976,0.055l0.169,2.343c-0.386,0.04-0.59-0.096-0.601-0.253l-0.023-0.312
			c-0.023-0.312,0.17-0.332,0.17-0.332c-0.386,0.04-0.579,0.06-0.556,0.372c0.023,0.312,0.034,0.468-0.158,0.488
			c0.396,0.116,0.601,0.252,0.43,0.585c0.023,0.312,0.228,0.448,0.239,0.604c-0.397-0.116-0.545,0.528-0.16,0.488
			c-0.023-0.312,0.171-0.332,0.772-0.079l0.011,0.156l-0.964,0.099c0.011,0.156,0.409,0.273,0.987,0.214l0.068,0.937l-0.194,0.02
			l0.068,0.937l-0.384,0.039c0.09,1.249,0.147,2.03,0.361,2.323c0.192-0.019,0.181-0.175,0.375-0.195l0.169,2.343
			c-0.194,0.019-0.386,0.037-0.975-0.062c0.011,0.156,0.023,0.312,0.237,0.605c0.216,0.294,0.239,0.606,0.261,0.918l0.578-0.055
			l0.259,3.592l-0.577,0.054c0.203,0.138,0.214,0.295,0.248,0.763c0.023,0.312,0.226,0.451,0.43,0.589l0.18,2.499
			c-0.011-0.156-0.205-0.139-0.216-0.295c-0.169,0.33,0.068,0.937,0.147,2.031l0.193-0.017l0.203,2.812l-0.193,0.017l0.079,1.093
			l0.205,0.14l0.259,3.592l0.271,3.749l-0.193,0.015l0.283,1.234l0.18,2.499l-0.204-0.142c-0.135,0.795-0.09,1.42,0.339,2.015
			l1.488,20.618c0.237,3.28,0.574,5.3,0.641,6.237c1.247,6.68,6.13,5.34,18.531,4.724l0.203,0.149l-0.011-0.158l0.19-0.009
			c-0.179,0.168-0.147,0.643,0.097,1.427l0.572-0.028l-0.043-0.634c-0.19,0.009-0.404-0.299-0.436-0.775l0.764-0.038l17.07-1.049
			c2.68,0.03,4.279,1.087,4.421,3.351l-0.19,0.009C230.126,233.382,230.338,233.697,230.739,234.003z"/>
		<path fill="#594E41" d="M224.6,154.393c-0.213,0.026-0.213,0.026,0.008,0.126l0.629,15.405c0.016,0.253-0.228-0.233-1.15-1.418
			c-0.202,0.148-0.154,0.908-0.285,2.195c0.648,0.193,1.07,0.152,1.28,0.132c0,0-0.008-0.127,0.188-0.401l0.169,2.664
			c-0.22-0.107-0.228-0.234-0.454-0.467c0.008,0.127-0.202,0.147-0.414,0.167c-0.21,0.02-0.008-0.127,0.188-0.4
			c0.202-0.147,0.202-0.147,0.194-0.274c0.008,0.127-0.202,0.147-0.202,0.147c-0.008-0.127-0.228-0.233-0.228-0.233
			c-0.154,0.907-0.323,1.561-0.081,2.047c0.43,0.087,0.64,0.068,1.053-0.099l0.209,3.298c-0.421,0.039-1.238,0.496-0.795,0.838
			c0.22,0.108,0.631-0.057,0.835-0.203l0.193,3.044c-0.228-0.235-0.244-0.488-0.252-0.616l-0.841,0.075l0.226,0.235l-0.419,0.037
			c0.21-0.019,0.226,0.235,0.25,0.615c0.242,0.488,0.25,0.614,1.084,0.414l0.161,2.537c-0.219-0.109-0.647-0.199-0.858-0.181
			c0.477,0.851,0.711,1.213,0.93,1.323l0.144,2.283l-0.227-0.236c0.008,0.126,0.008,0.126-0.201,0.144
			c-0.008-0.126-0.21,0.018-0.21,0.018c0.008,0.127,0.032,0.508,0.298,1.378l0.405-0.289l0.144,2.283l-0.211,0.017l-0.403,0.288
			c0.008,0.126,0.233,0.363,0.258,0.744c0.016,0.253,0.241,0.49,0.461,0.6l0.153,2.411c-0.203,0.143-0.195,0.269,0.032,0.507
			l0.955,15.093c0.353,5.58-0.234,6.253-6.912,6.918c0.411-0.153,0.403-0.278,0.386-0.531l-0.016-0.252l-0.844-0.075
			c0.241,0.492,0.266,0.87,0.266,0.87l-3.137,0.192c-3.974,0.244-7.119,0.31-9.01,0.301c-5.665,0.098-5.25-3.05-5.479-6.409
			l-0.28-4.106c0.009,0.125,0.009,0.125,0.226,0.235l0.017,0.249c0.219,0.109,0.42-0.029,0.628-0.044
			c-0.226-0.235-0.243-0.484-0.042-0.623l-0.426-0.095c0.409-0.155,0.166-0.637-0.471-0.717l-0.153-2.239
			c-0.008-0.124,0.42-0.03,0.42-0.03l0.008,0.124c0.175-0.513-0.068-0.995-0.505-1.213l-0.416-6.096
			c0.008,0.124,0.218,0.108,0.218,0.108c-0.008-0.124,0.194-0.265,0.203-0.141c0.201-0.14,0.184-0.39-0.034-0.497
			c-0.017-0.249-0.237-0.357-0.034-0.499c-0.211,0.017-0.42,0.033-0.429-0.091l-0.399-5.847l0.209-0.017
			c-0.009-0.125-0.017-0.249,0.194-0.267c0.209-0.018-0.008-0.124-0.237-0.356c-0.227-0.232-0.235-0.356-0.235-0.356l-0.221-3.235
			c0.21-0.018,0.43,0.089,0.43,0.089c-0.22-0.107-0.228-0.231-0.245-0.48c-0.227-0.23-0.235-0.355-0.244-0.479l-0.416-6.096
			l0.184-0.393c0,0-0.21,0.019-0.218-0.105l-0.671-9.828c0.202-0.146,0.193-0.27,0.193-0.27l-0.219-0.103l-0.358-9.003
			c-0.187-2.737-0.095-4.505,0.711-5.233c0.864,0.143,0.847-0.106,0.602-0.577c1.237-0.658,4.185-1.28,9.058-1.893l0.423-0.053
			c0.433,0.072,0.644,0.045,0.644,0.045c0.008,0.126-0.186,0.403,0.033,0.502l-0.422,0.053c0.244,0.476,0.464,0.575,0.685,0.674
			c-0.008-0.126-0.008-0.126,0.414-0.178c-0.017-0.251-0.041-0.628,0.139-1.157c-0.213,0.027-0.424,0.053-0.644-0.045l4.871-0.613
			c0.041,0.63,0.27,0.855,0.057,0.882c-0.016-0.252-0.236-0.352-0.236-0.352c-0.367,0.935,0.684,0.677,1.531,0.571
			c0,0-0.033-0.504-0.285-1.109l1.907-0.24c-0.195,0.28-0.187,0.406-0.4,0.432c0.449,0.326,0.473,0.705-0.138,1.163
			c0.211-0.026,0.44,0.2,0.66,0.3l0.676,0.553l0.154-0.911c-0.447-0.327-0.471-0.706-0.268-0.859c-0.432-0.073-0.652-0.173-0.66-0.3
			c0.219,0.1,0.644,0.047,1.271-0.159l-0.635,0.08c-0.211,0.026-0.424,0.053-0.432-0.073c0.197-0.28,0.408-0.306,0.627-0.206
			c0.636-0.08,1.068-0.006,1.5,0.067c0.227,0.227,0.235,0.353,0.887,0.527c-0.008-0.127-0.008-0.127,0.195-0.28
			c0.008,0.127,0.016,0.254,0.227,0.227l-0.008-0.127c1.327,0.728,1.407,1.997,1.733,3.746l0.385,6.088l-0.213,0.025
			c0.016,0.253,0.024,0.38-0.179,0.532"/>
		<path fill="#594E41" d="M301.879,239.799l-0.009-0.172c0,0-0.19,0.008-0.181,0.18c-0.19,0.008-0.373,0.186-0.382,0.016
			l0.034,0.682c-0.719,0.885-1.066,1.582-1.429,1.938l-0.017-0.342c0.008,0.17-0.183,0.178-0.571,0.023l0.034,0.681
			c-2.902,3.011-6.786,5.362-11.272,7.045c-0.209-0.332-0.597-0.487-0.788-0.481c0.209,0.332,0.026,0.507,0.026,0.507l0.2,0.162
			l-2.628,0.766c-2.066,0.575-4.139,0.98-6.223,1.218c-0.424-0.827-0.589-0.317-0.571,0.019c-1.703,0.223-3.024,0.434-4.555,0.317
			c0.155-0.674-0.055-1.003-0.815-0.977c0.009,0.167-0.171,0.341-0.171,0.341c-0.372,0.179-0.173,0.339,0.037,0.668
			c-6.493-0.287-12.322-2.249-17.679-5.863c-0.01-0.164-0.211-0.323-0.4-0.316c-0.989-0.622-1.79-1.251-2.799-2.201
			c-0.201-0.156-0.211-0.322-0.6-0.471c-2.813-2.354-5.638-4.862-7.227-9.056l0.18-0.172c-0.2-0.154-0.4-0.31-0.42-0.636
			c-0.451-1.127-0.72-2.425-1.001-3.886c0.382-0.019,0.382-0.019,0.563-0.193l-0.381,0.019c-0.182,0.174-0.231-0.644-0.148-2.452
			l-0.192,0.01l-0.02-0.326c0.01,0.163,0.01,0.163,0.202,0.153c-0.212-0.317-0.212-0.317-0.222-0.48l-0.069-1.144
			c0.192-0.01,0.382-0.021,0.563-0.194c-0.01-0.164,0.172-0.338,0.162-0.501c0.181-0.175,0.171-0.338,0.161-0.501
			c-0.392-0.143-0.793-0.448-1.005-0.765l-1.796-29.744c0.232,0.639,0.272,1.293,0.311,1.946c0,0,0.191-0.015,0.201,0.149
			l0.575-0.044c0.345-0.684-0.329-2.275-1.117-2.542l-0.128-2.124c0.203,0.148,0.394,0.132,0.779,0.102
			c0.211,0.312-0.532-8.826-1.301-8.759l-0.148-2.452c0.193-0.017,0.375-0.198,0.567-0.215c-0.01-0.163,0.174-0.344,0.365-0.361
			c-0.434-0.783-0.474-1.437-0.513-2.092l-0.192,0.017l-0.212-0.309l-0.069-1.144c0.334-0.852,0.103-1.489-0.118-1.961l-0.187-3.106
			c-0.355-5.885-0.651-10.788-1.274-14.67c-0.089-1.471,0.015-2.962,0.12-4.454c0.752-0.411,0.945-0.432,0.954-0.269
			c-0.049-0.818-0.089-1.472-0.493-1.757l-0.02-0.327l0.193-0.021c0.183-0.185,0.183-0.185-0.02-0.327
			c0.288-1.679,0.972-3.239,1.851-4.824c0.193-0.022,0.376-0.208,0.163-0.514l1.235-2.123c0.194-0.023,0.194-0.023,0.377-0.209
			c0.01,0.164-0.183,0.187-0.173,0.35c-0.194,0.023-0.185,0.187-0.185,0.187c0.377-0.209,0.765-0.254,0.774-0.09
			c0.173-0.35,0.154-0.679-0.068-1.149c0.531-0.889,1.073-1.614,1.614-2.34c0.029,0.493-0.136,1.009-0.512,1.218
			c1.16-0.137,1.731-0.369,1.914-0.557c-0.378,0.21-0.58,0.069-0.609-0.425c0.183-0.188,0.378-0.211,0.378-0.211
			s-0.01-0.164-0.195,0.023c-0.386,0.046-0.386,0.046-0.59-0.095c0.784,0.072,0.561-0.398,0.165-0.516
			c0.174-0.352,0.542-0.727,1.093-1.29c0.01,0.165,0.019,0.33,0.222,0.471c0.378-0.21,0.571-0.234,0.764-0.257
			c-0.203-0.142-0.415-0.448-0.222-0.471l0.387-0.047c-0.195,0.023-0.204-0.142-0.223-0.471c0.552-0.564,1.103-1.129,1.848-1.717
			c0.01,0.164,0.214,0.306,0.223,0.471c0.395,0.118,0.552-0.565,0.155-0.683l-0.01-0.165c0.745-0.589,1.492-1.179,2.439-1.628
			l0.185-0.189c1.124-0.804,2.633-1.657,3.962-2.323l0.009,0.166c0.202,0.142,0.405,0.284,0.6,0.259
			c0.019,0.331,0.019,0.331-0.185,0.19c-0.405-0.284-0.6-0.259-0.59-0.094l0.195-0.024c-0.166,0.521-0.341,0.876-0.129,1.185
			c0,0,0.378-0.214,0.775-0.095c0.386-0.047,0.581-0.071,0.571-0.238c-0.453-1.113-0.675-1.587-1.053-1.373
			c0.95-0.452,1.134-0.642,0.941-0.618l1.715-0.715c1.723-0.55,3.061-1.052,4.416-1.222c0.018,0.333-0.165,0.524,0.046,0.833
			l0.978,0.046c0,0-0.018-0.334-0.25-0.976l4.067-0.51c-0.184,0.191-0.175,0.359-0.157,0.693l0.774-0.097
			c0.186-0.191-0.027-0.502-0.23-0.645l4.26-0.534c0.009,0.167,0.018,0.335,0.397,0.119l-0.204-0.143
			c4.067-0.51,3.874-0.486,6.806-0.344c-0.167,0.53-0.149,0.867-0.149,0.867s0.193-0.024,0.395,0.121
			c0.204,0.144,0.204,0.144,0.379-0.217c-0.193,0.024-0.211-0.313-0.035-0.675l0.783,0.072c2.166,0.411,4.347,1.162,6.538,2.087
			c0.808,0.584,1.802,0.976,2.61,1.561c0.017,0.34,0.034,0.68,0.229,0.657c0.193-0.023,0.386-0.047,0.377-0.217l2.214,1.446
			c0.21,0.317,0.219,0.488,0.227,0.658c0,0,0.195-0.023,0.186-0.193c0.807,0.589,1.614,1.18,2.431,1.941l0.008,0.171
			c0.807,0.592,1.613,1.185,2.428,1.95l0.203,0.148c1.219,1.063,2.251,2.322,2.906,3.798l-0.193,0.022
			c0.008,0.172,0.209,0.321,0.218,0.492l0.228,0.664c0.58-0.065,0.394,0.128,0.042,0.856l0.579-0.065
			c0.452,1.328,0.922,3.001,1.197,4.695c-0.385,0.042-0.393-0.129-0.604-0.452c-0.017-0.343-0.025-0.514-0.41-0.472
			c0.579-0.063,0.763-0.255,0.352-0.727c-0.209-0.322-0.41-0.472-0.385,0.042c0.201,0.15,0.201,0.15,0.393,0.129l-0.176,0.364
			c-0.37,0.385-0.755,0.427-0.755,0.427l0.402,0.301c0.194-0.021,0.395,0.13,0.395,0.13c-0.193,0.021-0.378,0.214-0.37,0.384
			c0.202,0.151,0.974,0.067,1.158-0.125l0.382,7.89c-0.033-0.686-0.434-0.989-0.821-0.949c0.083,1.715,0.317,2.552,0.309,2.381
			l0.578-0.059l0.108,2.229c-0.008-0.172-0.201-0.152-0.201-0.152c-0.184,0.191-0.167,0.534,0.05,1.029
			c0.209,0.324,0.225,0.667-0.151,0.877l0.393,0.133l0.017,0.344c-0.092,2.077-0.42,3.314-1.156,4.074
			c-1.466,1.688-6.67,2.009-12.647,2.405l0.194-0.018l-0.806-0.605c0.009,0.169,0.22,0.491,0.42,0.642l-2.118,0.201
			c-0.009-0.169-0.017-0.339,0.176-0.357c-0.202-0.151-0.394-0.133-0.569,0.225c0.183-0.188,0.192-0.018,0.201,0.151l-0.77,0.073
			c-0.386,0.037-0.578,0.055-0.778-0.096l-0.578,0.055c0.192-0.018,0.183-0.188,0.183-0.188c-0.394-0.133-0.412-0.471-0.244-0.997
			c-0.586-0.114-0.972-0.077-0.954,0.262c0.386-0.037,0.595,0.283,0.63,0.96c-4.279-0.441-3.326-0.701-4.259-11.124l-0.386,0.04
			l0.351-0.715c-0.501-2.152-1.187-4.114-2.626-5.654l-0.018-0.337l-0.387,0.042c-1.037-1.241-1.037-1.241-2.231-1.787l-0.018-0.336
			l-0.184,0.189l-0.202-0.147l0.358-0.547c-0.385,0.042-0.376,0.211-0.552,0.568c-2.002-1.13-4.144-1.23-6.647-0.783
			c-0.009-0.167-0.018-0.334-0.229-0.648c-0.202-0.145-0.211-0.313-0.22-0.479c0.009,0.167-0.185,0.188-0.185,0.188
			c0.009,0.167,0.018,0.334-0.165,0.523c0.387-0.043,0.598,0.27,0.229,0.647c-0.579,0.064-1.333,0.484-2.086,0.903
			c-2.262,1.256-4.467,3.505-5.448,6.788l-0.192,0.02c0.202,0.145,0.211,0.312,0.211,0.312c-0.164,0.519-0.321,1.204-0.293,1.702
			c-0.22-0.478-0.431-0.791-0.827-0.916c-0.009-0.166,0.183-0.187,0.377-0.207c0,0-0.203-0.146-0.424-0.624
			c-0.762,0.248-0.532,0.891,0.066,1.162c-0.377,0.207-0.368,0.372-0.339,0.87c0.213,0.312,0.231,0.644,0.038,0.664
			c0.396,0.125,0.782,0.085,0.965-0.1l0.084,1.495c-0.55,0.558-0.918,0.929-0.899,1.261l0.597,0.274
			c0.194-0.02,0.019,0.332-0.338,0.869l0.413,0.459c0.203,0.147,0.194-0.02,0.194-0.02l0.14,2.491
			c0.019,0.332,0.028,0.498-0.156,0.683l0.194-0.019l0.019,0.333c-0.194,0.019-0.569,0.222-0.166,0.517
			c0.019,0.332,0.222,0.479,0.037,0.664l0.194-0.019l0.234,4.152l-0.203-0.148c0.009,0.166,0.019,0.332,0.222,0.48l0.618,10.96
			l-0.212-0.315l-0.201-0.15l-0.173,0.349l0.201,0.149l0.385-0.033l1.347,23.909c-0.211-0.319-0.412-0.472-0.795-0.446l0.028,0.498
			c0.402,0.306,0.612,0.624,0.421,0.637c0.009,0.167,0.019,0.333-0.182,0.18l-0.193,0.013l0.23,0.65
			c0.372-0.191,0.565-0.204,0.556-0.371l0.178,3.156c-0.009-0.167-0.202-0.154-0.393-0.142c0.009,0.167-0.163,0.51,0.047,0.831
			c0.028,0.498,0.238,0.818,0.056,0.996l0.383-0.024l0.281,4.982c0.009,0.166,0.047,0.829,0.303,1.982
			c-0.172,0.342-0.153,0.675,0.084,1.495l0.056,0.997c-0.009-0.167-0.009-0.167,0.181-0.178c0.065,1.164,0.103,1.828,0.304,1.983
			c-0.183,0.178-0.192,0.011-0.383,0.021c0.009,0.167,0.019,0.333,0.237,0.82c0.037,0.664-0.088,1.837,1.077,2.108
			c0.437,0.977,0.866,1.79,1.675,2.581c1.648,2.089,3.802,2.986,6.499,3.357c-0.181,0.176,0.018,0.334,0.027,0.502
			c0.192-0.009,0.382-0.018,0.755-0.205c0.009,0.168,0.018,0.335,0.208,0.326l-0.227-0.66c1.344,0.102,2.67-0.129,3.787-0.688
			c0.201,0.158,0.219,0.494,0.409,0.485l0.154-0.682c2.426-1.13,3.682-2.712,4.547-4.445c1.057-1.745,1.523-3.8,1.609-5.835
			l-0.115-2.193c0,0,0.191-0.011,0.372-0.192c-0.018-0.337-0.217-0.495-0.425-0.82l-0.186-3.543c0.009,0.168,0.191-0.012,0,0
			l0.182-0.181l-0.2-0.157l0.076-2.205c-0.013-3.894,1.083-4.983,5.095-5.42l0.383-0.026c0.017,0.339,0.217,0.496,0.408,0.483
			c-0.009-0.169-0.017-0.339,0.166-0.521c3.054-0.374,6.125-0.409,9.571-0.639l2.106-0.141c2.687-0.008,4.286,1.262,4.402,3.664
			c0.249,1.188,0.582,4.091,0.632,5.121l0.008,0.173c-0.184,0.183-0.176,0.354-0.176,0.354l0.192-0.012
			C308.049,225.269,306.879,232.72,301.879,239.799z"/>
		<path fill="#594E41" d="M397.391,125.205l0.032,0.973l0.204-0.024l0.07,2.139c-0.147,1.774-0.519,2.987-1.108,3.832
			c-1.389,1.519-4.255,1.835-8.149,2.265c-4.096,0.452-5.735,0.633-7.559,1.413l-0.218-0.362c-0.192,0.407-0.39,0.622-0.601,0.452
			l0.007,0.192c-2.43,1.037-3.794,3.11-4.107,5.837c-0.218-0.361-0.218-0.361-0.211-0.17c0,0,0.007,0.192,0.218,0.362
			c-0.183,0.596-0.162,1.171-0.142,1.746l0.812,22.414c-0.212-0.173-0.416-0.154-0.831-0.309c-0.19,0.401-0.176,0.784,0.654,1.094
			l-0.4,0.228c-0.205,0.018-0.198,0.209-0.198,0.209c0.212,0.174,0.422,0.347,0.824,0.119l0.125,3.449
			c-0.219-0.365-0.429-0.539-0.838-0.504l0.049,1.34c0.226,0.557,0.24,0.94,0.049,1.341c0.198-0.209,0.408-0.035,0.625,0.331
			l0.205-0.017l0.132,3.64c-0.219-0.367-0.429-0.541-0.436-0.733c-0.189,0.4-0.175,0.783,0.245,1.133
			c0.226,0.558,0.035,0.958-0.161,1.166l0.422,0.35l0.104,2.874l-0.198,0.208l-0.203,0.016c0,0,0.014,0.383,0.238,0.941
			c0.021,0.575,0.028,0.767,0.239,0.942l0.909,25.098l-0.441-0.934c-0.42-0.359-0.616-0.154-0.588,0.612
			c0.216,0.371,0.23,0.753,0.23,0.753l0.204-0.012l0.007,0.193c0.405-0.024,0.602-0.229,0.588-0.611l0.16,4.405
			c-0.197,0.204-0.204,0.012-0.406,0.023c-0.007-0.191-0.014-0.382-0.216-0.37c-0.378,0.789-0.343,1.747,0.481,2.083
			c-0.007-0.191-0.007-0.191,0.19-0.394l0.77,21.264c0.25,6.897,0.812,11.289-4.017,11.837c-5.238,0.367-10.283,0.538-15.133,0.512
			c-5.052-0.017-4.628-4.559-4.855-10.21l-2.148-48.396c0.227,0.55,0.438,0.723,0.845,0.693c0.376-0.785,0.143-1.523-0.701-2.215
			l-0.205,0.016l-0.144-3.578l0.212,0.172c0.391-0.408,0.361-1.162,0.353-1.35c-0.203,0.016-0.414-0.156-0.429-0.533
			c-0.023-0.565-0.038-0.942-0.243-0.926l-0.212-5.273l0.205-0.017l-0.212-0.171l-0.87-21.659c-0.008-0.189,0,0,0.213,0.168
			c0.415,0.148,0.817-0.081,1.013-0.289c-0.219-0.357-0.445-0.902-0.46-1.279l-0.666-1.257c-0.008-0.189,0,0-0.198,0.209
			l-0.091-2.26l0.819-0.084l-0.075-1.884c-0.008-0.189-0.213-0.167-0.432-0.523c-0.008-0.189-0.219-0.355-0.425-0.334l-0.106-2.637
			l0.614-0.065c-0.008-0.188-0.03-0.753-0.476-1.652c-0.433-0.521-0.455-1.085-0.053-1.318c-0.008-0.189-0.221-0.354-0.629-0.31
			l0.038,0.941c-0.896-1.794-2.375-2.766-4.644-2.894l-0.212-0.165c-1.237-0.052-17.285,1.716-20.571,1.892l-0.295-2.012
			c-0.394,0.415-0.565,1.178-0.524,2.102l-3.893,0.429l-0.008-0.185c0.385-0.599-0.1-2.211-1.107-1.729l-0.983,1.035
			c0.213,0.162,0.229,0.53,0.452,0.875l-1.229,0.136c0.179-0.575-0.076-1.655-0.554-3.081l-0.41,0.046
			c-0.204,0.023-0.187,0.391-0.358,1.149c0.025,0.551-0.155,1.126-0.556,1.355c0.417,0.138,0.632,0.299,0.844,0.461
			c-2.271-0.118-3.577-1.632-3.697-4.2c-0.341-2.91-0.495-6.21-0.461-9.902c0.471,1.235,0.701,1.76,0.718,2.127
			c0.402-0.233,0.814-0.282,0.805-0.466l-0.624-0.109c0.205-0.024,0.409-0.049,0.401-0.233c-0.213-0.159-0.222-0.342-0.025-0.551
			l-0.008-0.183c-0.009-0.184-0.213-0.159-0.205,0.025c-0.034-0.734-0.264-1.26-0.488-1.602c0.189-0.393-0.017-0.367-0.418-0.134
			c0.034,0.734-0.164,0.942-0.164,0.942l-0.051-1.1l0.582-0.808l-0.599,0.442l-0.085-1.834c0.241,0.708,0.445,0.683,1.044,0.241
			c0.205-0.025,0.403-0.234,0.403-0.234c0.188-0.392-0.025-0.551-0.241-0.709c-0.418-0.132-0.633-0.291-0.642-0.474
			c-0.009-0.183-0.009-0.183,0.19-0.392c0.205-0.025,0.205-0.025,0.196-0.208c0.213,0.158,0.205-0.025-0.009-0.184
			c0.394-0.418,0.787-0.837,1.593-1.307c0.008,0.184-0.19,0.393-0.395,0.419l1.429-0.363l-0.017-0.368
			c0.411-0.052,0.815-0.287,1.431-0.364c0.813-0.287,1.634-0.391,2.662-0.52c0.008,0.185,0.008,0.185,0.222,0.343l0.017,0.369
			c0.42,0.133,0.84,0.266,1.036,0.056c-0.221-0.343-0.238-0.712-0.246-0.897l1.643-0.206c0.041,0.924,0.058,1.294,0.273,1.452
			l-0.207,0.026l-0.197,0.211c0.008,0.185,0.221,0.344,0.246,0.898c0.215,0.159,0.231,0.529,0.444,0.689
			c0.008,0.184,0.213,0.159,0.616-0.076c-0.221-0.345-0.238-0.714-0.254-1.084l-0.469-1.243c0.387-0.606,0.583-0.816,0.575-1.001
			l1.233-0.155l15.907-1.622l-15.685,1.966c-0.008-0.185-0.213-0.159-0.213-0.159c0.025,0.555,16.53-1.509,16.934-1.748
			l-0.023-0.562l4.11-0.516c0.015,0.375,0.425,0.324,0.837,0.272l-0.015-0.376l1.438-0.181c-0.387,0.616,0.053,1.317,0.412-0.052
			l2.671-0.335l0.008,0.189l1.028-0.129l-0.008-0.189l1.643-0.206c-0.35,1.562,0.523,2.782,1.543,2.466c0,0-0.007-0.189,0.19-0.403
			c0.404-0.24-0.227-0.542-0.419-0.138c0,0,0.007,0.189-0.205,0.025c-0.22-0.352-0.449-0.893-0.493-2.027l4.931-0.619
			c0.007,0.19,0.015,0.379-0.183,0.594c0.411-0.052,0.829,0.087,0.843,0.466c-0.205,0.026-0.41,0.051-0.417-0.139
			c-0.411,0.051-0.609,0.267-0.389,0.62c0.015,0.38,0.227,0.543,0.029,0.759c0.212,0.164,0.419,0.138,0.828,0.087
			c0.411-0.051,0.616-0.076,0.83,0.088c-0.015-0.379-0.015-0.379,0.395-0.43l-1.306-1.744c0.207-0.026,0.411-0.052,0.419,0.138
			c-0.007-0.19-0.015-0.379-0.227-0.543l4.315-0.542l0.212,0.165c-0.205,0.026-0.397,0.432-0.376,1.003
			c0.029,0.761,0.25,1.116,0.455,1.09c0,0,1.651-0.014,1.622-0.775c-0.404,0.242-0.631-0.304-0.44-0.711
			c-0.205,0.026-0.631-0.303-0.857-0.849l4.725-0.593l0.042,1.146c0.219,0.356,0.226,0.547,0.233,0.739
			c0.411-0.051,0.823-0.102,0.816-0.294s-0.021-0.573-0.235-0.739c-0.219-0.356-0.226-0.548-0.035-0.955l4.11-0.516
			c0,0,0.021,0.575,0.26,1.507c0.609-0.268,1.021-0.319,1.021-0.319c-0.418-0.141-0.432-0.524-0.46-1.291l4.52-0.568
			c0.234,0.744,0.247,1.128,0.261,1.513c0.61-0.269,1.019-0.32,1.026-0.128c0,0-0.007-0.192-0.218-0.359
			c0.205-0.026,0.405-0.244,0.191-0.41c-0.191,0.41-0.389,0.629-0.603,0.462l0.173-0.988l-0.007-0.193l6.164-0.774
			c1.438-0.181,2.466-0.31,3.294-0.219c0.205-0.026,0.211,0.167,0.418,0.142c0.007,0.194,0.013,0.388,0.218,0.362
			c-0.007-0.194-0.007-0.194,0.405-0.246c0.205-0.026,0.41-0.051,0.198-0.22l-0.211-0.168c0.821-0.103,1.649-0.013,2.265-0.09
			c-0.192,0.414-0.179,0.802-0.166,1.19c0.013,0.389,0.218,0.363,0.416,0.143c-0.185,0.608-0.384,0.827-0.377,1.021
			c0.205-0.025,0.416,0.144,0.623,0.118l-0.405,0.244c0.205-0.025,0.211,0.169,0.218,0.363c-0.198,0.219-0.403,0.244-0.397,0.438
			c0.205-0.025,0.623,0.119,0.821-0.101c-0.623-0.119-0.431-0.532,0.192-0.413c-0.026-0.777-0.468-1.697-0.911-2.616
			c0.205-0.026,0.205-0.026,0.198-0.22c1.657,0.183,2.736,1.61,3.222,3.893c-0.211-0.169-0.224-0.558-0.448-1.117
			c-0.213-0.168-0.424-0.338-0.43-0.533l-0.571,1.437c0.629,0.313,0.642,0.702,0.25,1.336c0,0,0.206-0.025,0.418,0.144
			c0.211,0.17,0.418,0.145,0.622,0.12c-0.013-0.389,0.192-0.414,0.192-0.414c0.238,0.947,0.276,2.115,0.327,3.671l0.178,5.447
			L397.391,125.205z"/>
		<path fill="#594E41" d="M433.895,116.388c0.091-0.72-0.708-1.557-1.771-1.67c-0.158,0.148-0.125,0.434,0.276,0.853
			c-1.063-0.113-0.663,0.307-0.996,0.46c-0.208-0.281,0.089-0.721-0.276-0.854c0.017,0.143-0.158,0.148-0.175,0.005
			c0.332-0.154,0.315-0.296,0.455-0.588c-0.365-0.133-1.935-0.088-4.569-0.156c-0.107,0.579-0.386,1.163-0.127,1.876
			c-0.366-0.133-0.855,0.169-0.89-0.118c0.489-0.302,0.212-1.159,0.318-1.738l-2.634-0.068l-2.092,0.06
			c-0.158,0.149-0.158,0.149-0.349,0.01c-2.094,0.06-3.472,0.243-4.676,0.423c-0.139,0.293,0.436,0.711,0.313,1.149
			c-0.156,0.15-0.313,0.299-0.854,0.17c-0.21-0.284-0.087-0.722-0.14-1.156c-0.506,0.16-0.82,0.459-1.152,0.613l-0.33,0.155
			l0.226,0.428c-0.785,0.748,0.559,1.723-0.975,2.06c0.121-0.439-0.541-0.129-0.576-0.418c-0.018-0.145,0.697-0.021,0.488-0.305
			l-0.349,0.011l-0.105-0.868c-0.453,0.594-0.697,1.473-1.253,2.652c0.053,0.434,0.088,0.724,0.297,1.008l-0.521,0.017l-1.213,4.403
			c0.018,0.145,0.018,0.145-0.156,0.15l0.053,0.435c0.593,0.562-0.501,1.619,0.092,2.18l-0.87,0.031l-0.483,1.766
			c0.329-0.158,0.955-0.763,0.833-0.322l-0.018-0.145c0.018,0.145-0.138,0.296-0.12,0.441c0.642-0.46,0.227,0.429,0.905,0.258
			c0.088,0.725-0.069,0.876,0.141,1.16c-0.384-0.277,0.226,0.428-0.139,0.296c-0.209-0.283-0.486,0.309-0.66,0.316
			c0.384,0.277,0.486-0.309,0.695-0.026c-0.138,0.297-0.85,0.178-0.451,0.6c-0.677,0.172-0.382-0.277-0.904-0.257
			c-0.437-0.713,0.5-1.622-0.266-2.176l-1.001,3.245l-0.138,0.298c0.244,0.574,0.142,1.161,0.369,1.59
			c-0.191-0.139-0.521,0.021-0.694,0.028l-0.325,1.619c0.036,0.29,0.071,0.581,0.28,0.865c0.155-0.153,0.102-0.588,0.049-1.024
			l0.833-0.325c-0.294,0.45-0.396,1.038-0.691,1.488c0.348-0.014,0.294-0.45,0.642-0.464c0.226,0.429,0.453,0.857,0.506,1.292
			c0.365,0.131,0.731,0.262,1.252,0.24c-0.018-0.145-0.192-0.138-0.053-0.435c0.712,0.116,0.432-0.747,0.849-0.181
			c-0.521,0.022,0.053,0.435,0.365,0.131c0.071,0.58-0.102,0.587-0.277,0.594l1.58,0.08l0.016-1.311
			c0.156-0.152,0.867-0.036,0.832-0.325c-0.191-0.138-0.088-0.724-0.452-0.855c1.215-0.049,0.279,0.862,0.991,0.978
			c-0.85,0.18-0.068,0.875-0.535,1.331c0.33-0.159,0.538,0.123,0.556,0.268c1.214-0.051,2.603-0.109,4.148-0.32
			c0.329-0.159,0.503-0.166,0.659-0.318c-0.711-0.116-0.522-1.43-0.001-1.451c0.21,0.282-0.294,0.447,0.227,0.426
			c0.225,0.426-0.608,0.75,0.122,1.011c-0.348,0.015-0.348,0.015,0.017,0.144c1.527-0.354,2.811-1.276,3.732-2.327
			c-0.191-0.137-0.035-0.288,0.313-0.303l1.529-1.797l1.026-1.629c-0.885-0.11-0.833-1.124-1.023-1.261
			c0.139-0.294,0.851-0.176,0.991-0.471c0,0-0.175,0.007-0.192-0.137c0.175-0.007,0.123-0.438,0.645-0.457
			c0.052,0.431,0.259,0.712,0.294,0.999l0.993-1.912c-0.051-0.431,0.211-1.161,0.56-1.174l2.726-4.991
			c-0.539-0.126-0.628,0.597-1.028,0.178c0.366,0.132-0.4-0.419,0.122-0.436c0.209,0.281,0.681-0.167,0.905,0.257l1.156-2.051
			l-0.034-0.286c0.123-0.435,0.578-1.024,0.178-1.443c0.332-0.154,0.489-0.302,0.63-0.594c0.191,0.137,0.068,0.572,0.102,0.858
			C433.087,118.421,433.665,117.399,433.895,116.388z"/>
		<path fill="#594E41" d="M439.417,233.018c0.394,3.734,0.492,7.338,0.149,10.812c-0.198,3.468-3.848,3.449-6.911,3.554l-4.084,0.14
			c-0.3-0.276-0.45-0.414-0.591-0.266c0.145-0.005,0.15,0.139,0.008,0.286l-3.501,0.12l-0.021-0.714
			c-0.004-0.142-0.004-0.142-0.147,0.005c0,0-0.145,0.005-0.15-0.137c0.145-0.005,0.292-0.01,0.288-0.152l-0.438,0.015
			c0.004,0.142,0.154,0.279,0.304,0.418c0,0,0.004,0.142-0.137,0.289c0,0,0.145-0.005,0.301,0.276l-3.501,0.12
			c-0.163-0.564-0.318-0.844-0.18-1.134c-0.296-0.132-0.446-0.268-0.309-0.558c-0.438,0.015-0.713,0.594-0.557,0.874
			c-0.004-0.142-0.009-0.285,0.145-0.005c0.158,0.422,0.301,0.275,0.296,0.132l0.137-0.289c0.004,0.142,0.009,0.284,0.154,0.279
			l0.009,0.285c-0.145,0.005-0.287,0.152-0.433,0.157l0.009,0.285l-10.938,0.374c-0.156-0.278-0.16-0.418-0.165-0.559
			c0.004,0.141,0.004,0.141-0.286,0.151c0.15,0.136,0.154,0.278,0.159,0.418l-7.147,0.245c-0.15-0.135-0.15-0.135-0.005-0.14
			c-0.145,0.005-0.145,0.005-0.288,0.15l-0.583,0.02c-1.167,0.04-1.75,0.06-2.338-0.06l-0.875,0.03
			c-0.014-0.42-0.316-0.691-0.466-0.825c-0.287,0.15-0.278,0.43-0.269,0.709c-0.588-0.119-1.03-0.244-1.182-0.379
			c-0.169-0.693-0.476-1.103-0.923-1.367c-0.136,0.285-0.131,0.425-0.126,0.564c-0.918-1.226-1.112-2.617-1.293-7.924l-0.383-11.175
			l0.73-0.035c0.264-0.853-0.048-1.397-0.783-1.5l-0.081-2.375c0.873-0.184,0.552-1.008-0.053-1.536l-0.086-2.514
			c0.146-0.008,0.136-0.288,0.122-0.707l-0.146,0.008l-0.105-3.073c0.283-0.296,0.273-0.575-0.029-0.838l-0.225-6.565l0.146-0.009
			c-0.005-0.139-0.01-0.279-0.161-0.41l-0.01-0.279l0.151,0.13c0.141-0.148,0.137-0.288,0.137-0.288
			c-0.005-0.14-0.156-0.27-0.302-0.261l-0.454-13.269c0.156,0.269,0.307,0.398,0.17,0.688l1.18,0.056
			c-0.005-0.139,0.137-0.29,0.288-0.16l-0.929-1.335l0.441-0.032c-0.606-0.517-0.767-0.925-0.767-0.925
			c-0.143,0.15-0.138,0.29-0.129,0.569c0.005,0.14,0.014,0.419-0.132,0.43c0.446,0.108,0.597,0.237,0.602,0.377l-0.293,0.021
			c-0.153-0.129-0.299-0.119-0.446-0.108l-0.115-3.352c0.151,0.128,0.151,0.128,0.156,0.268c0.005,0.14,0.156,0.268,0.299,0.118
			c-0.005-0.14-0.005-0.14,0.142-0.151c-0.01-0.279-0.014-0.419-0.166-0.548c-0.153-0.128-0.157-0.268-0.014-0.419
			c0.01,0.28,0.01,0.28,0.156,0.269c-0.151-0.129-0.019-0.559,0.108-1.129c0,0-0.005-0.139-0.156-0.268l-0.151-0.129l-0.427,0.452
			l-0.053-1.536c0.441-0.033,0.583-0.184,0.725-0.335c-0.293,0.022-0.446-0.106-0.303-0.257c-0.005-0.14-0.005-0.14,0.142-0.151
			c-0.156-0.268-0.318-0.676-0.617-0.793l-0.005-0.14c0.142-0.151,0.142-0.151,0.289-0.162c-0.005-0.14-0.156-0.268-0.308-0.396
			l-0.048-1.397l0.147-0.011c0.142-0.151,0.132-0.431,0.128-0.57c-0.005-0.14-0.156-0.268-0.298-0.117l-0.105-3.073
			c0.294-0.024,0.142-0.151-0.005-0.139l0.147-0.012c-0.005-0.14-0.01-0.28,0.142-0.152c0.148-0.012,0.148-0.012,0.143-0.152
			c-0.148,0.012-0.295,0.024-0.446-0.103l-0.76-22.208c-0.239-6.983,0.046-7.293,7.288-8.024l1.181-0.119
			c0.149-0.015,0.149-0.015,0.153,0.126c-0.149,0.015-0.291,0.171-0.434,0.325c0.152,0.126,0.295-0.03,0.733-0.214l-0.009-0.281
			l15.961-1.611c0.329,1.107,0.612,0.651,0.295-0.03l15.074-1.521c0.004,0.144-0.141,0.302-0.423,0.763
			c0.147-0.015,0.299,0.114,0.443-0.045c0.143-0.159,0.135-0.445,0.127-0.733c2.811-0.139,4.593-0.03,5.204,0.631
			c1.22,1.323,1.265,8.4,1.059,11.742c-0.2,3.485-3.305,3.477-7.729,3.878l-8.259,0.747l0.582-0.339l-0.587,0.196
			c0.287-0.312-0.03-0.998-0.311-0.543c0.294-0.027,0.151,0.129,0.004,0.142c-0.144,0.156,0.008,0.285,0.164,0.557l-1.623,0.147
			c-0.151-0.129-0.298-0.116-0.442,0.04l-1.621,0.147l-0.013-0.427l-0.295,0.027c0.157,0.271,0.161,0.413,0.013,0.427l-2.064,0.187
			c-1.323,0.262-2.499,0.51-3.522,0.886c-1.605,0.712-2.592,2.219-2.816,4.507c-0.147,0.013-0.138,0.295-0.129,0.578l0.147-0.013
			l0.013,0.424c-0.156-0.27-0.303-0.258-0.451-0.245c-0.142,0.154,0.013,0.424,0.313,0.54l0.08,2.544
			c0.134,4.241,0.254,8.056,0.503,11.296c0.045,1.414,0.379,2.664,0.842,3.338c0.018,0.566,0.178,0.979,0.049,1.556
			c0.147-0.011,0.298,0.12,0.298,0.12c0.152,0.131,0.299,0.12,0.445,0.109c-0.151-0.131-0.16-0.414-0.333-1.252
			c0.605,0.522,1.206,0.903,1.946,0.991l-0.286,0.305c-0.147,0.011-0.151-0.13-0.441,0.032c0,0,0.152,0.131,0.299,0.12
			c0.151,0.131,0.299,0.12,0.299,0.12s-0.004-0.142,0.138-0.294l0.142-0.152c0.74,0.087,1.626,0.164,2.508,0.099l0.882-0.065
			c0.164,0.557,0.177,0.984,0.039,1.278l0.587-0.043l-0.181-1.125l3.38-0.248c0,0,0.004,0.142,0.316,0.69l0.294-0.021
			c-0.152-0.132-0.156-0.274-0.316-0.69l1.469-0.108c0.008,0.285,0.013,0.428,0.16,0.417l0.142-0.153
			c0.147-0.011,0.142-0.154,0.138-0.296l1.764-0.13c0.156,0.274,0.311,0.549,0.315,0.692c0.147-0.011,0.29-0.164,0.437-0.175
			c-0.004-0.142-0.004-0.142-0.151-0.132l-0.148,0.011l0.282-0.45c0.886,0.078,1.327,0.045,1.028-0.076
			c0.739,0.089,1.475,0.035,1.92,0.146l0.004,0.143l0.293-0.021c0.739,0.089,1.339,0.476,1.796,1.017
			c0.008,0.286,0.016,0.573,0.163,0.562l0.51,2.406l0.037,1.29l-0.321-0.983l-0.441,0.031c0.155,0.276,0.317,0.839,0.334,1.412
			l0.441-0.031l0.098,3.44c0,0,0.004,0.144-0.138,0.297l0.146-0.01c-0.057,3.163,0.134,4.73-0.717,5.789
			c-0.309-0.555-0.317-0.841-0.029-1.003l-0.293,0.019c-0.152-0.133-0.298-0.124-0.298-0.124c0.02,0.716,0.033,1.145,0.191,1.566
			c-0.426,0.457-1.01,0.636-1.742,0.682c-0.004-0.143-0.156-0.277-0.302-0.268l0.008,0.286l-0.146,0.009
			c-0.436,0.171-1.61,0.244-3.223,0.344c-0.004-0.143,0.135-0.437,0.277-0.589c-0.59-0.106-0.88,0.055-0.863,0.626l-3.666,0.228
			l-3.369,0.352l-0.013-0.426l-0.44,0.027l0.013,0.426c-2.786,0.173-4.373,1.123-5.052,2.865l-0.152-0.133
			c-0.142,0.151-0.133,0.433-0.12,0.857c-0.528,1.874-0.567,5.274-0.438,9.372l0.004,0.141c-0.147,0.008-0.152-0.133-0.439,0.024
			c0.146-0.008,0.305,0.408,0.621,1.1l0.076,2.403c-0.004-0.142-0.155-0.276-0.452-0.401c0.479,1.25,0.638,1.666,0.493,1.674
			l0.031,0.989c0.164,0.558,0.181,1.123,0.199,1.689c-0.004-0.142-0.15-0.135-0.296-0.128c0.168,0.7,0.186,1.265,0.19,1.407
			c0.297,0.127,0.589,0.113,0.589,0.113c0.629,1.386,1.976,2.317,3.739,2.519c0.16,0.419,0.173,0.844,0.191,1.412
			c0.146-0.007,0.287-0.156,0.434-0.162c0.133-0.432-0.173-0.844-0.478-1.256c0.734,0.109,1.466,0.076,2.05,0.049l1.316-0.06
			c0.16,0.42,0.169,0.703,0.173,0.846c0.146-0.007,0.292-0.013,0.434-0.163c0,0,0.141-0.148,0.292-0.013l-0.021-0.71
			c1.028,0.095,2.051,0.048,3.22-0.005c0.008,0.285,0.013,0.427-0.125,0.719l0.439-0.02c-0.004-0.143,0.133-0.434,0.125-0.72
			l3.363-0.153c0.154,0.279,0.301,0.273,0.293-0.013l0.584-0.027c0.146-0.007,0.15,0.136,0.008,0.286l0.004,0.143
			c0.15,0.136,0.293-0.013,0.28-0.442l4.093-0.187c2.339-0.107,3.8-0.173,4.681-0.07
			C438.174,230.334,439.078,231.302,439.417,233.018z"/>
		<path fill="#594E41" d="M199.112,143.387l-0.02-0.009l0.004,0.073C199.111,143.413,199.112,143.387,199.112,143.387z"/>
		<path fill="#594E41" d="M200.79,165.243c-0.22-0.107-0.228-0.231-0.246-0.48c-0.158-0.16-0.207-0.268-0.227-0.362l0.043,0.753
			C200.57,165.136,200.79,165.243,200.79,165.243z"/>
		<path fill="#594E41" d="M200.069,157.795c0,0-0.07,0.003-0.131-0.016l0.015,0.264L200.069,157.795z"/>
		<path fill="#594E41" d="M200.301,164.284c0.003,0.038,0.007,0.076,0.016,0.117l-0.365-6.358l-0.068,0.145L200.301,164.284z"/>
		<path fill="#594E41" d="M223.754,138.901c0.014-0.666-0.018-1.437-0.075-2.338l-0.109-1.727l-0.145-3.199l0.112-0.013
			l-0.385-6.088c-0.001-0.008-0.003-0.015-0.004-0.023l-0.007-0.148c-0.009-0.004-0.013-0.006-0.022-0.01
			c-0.007-0.038-0.013-0.074-0.02-0.112c0.013-0.002,0.019-0.003,0.034-0.005l-0.02-0.324c-0.047-0.149-0.092-0.295-0.137-0.429
			l0.002,0.084c-0.01-0.057-0.021-0.115-0.031-0.171c-0.414-1.226-0.736-1.839-0.736-1.839l-0.411-0.513
			c-0.116-0.091-0.238-0.178-0.381-0.257l0.008,0.127c-0.211,0.026-0.219-0.101-0.227-0.227c-0.203,0.153-0.203,0.153-0.195,0.28
			c-0.652-0.174-0.66-0.3-0.887-0.527c-0.432-0.073-0.865-0.146-1.5-0.066c-0.219-0.1-0.431-0.074-0.627,0.206
			c0.008,0.126,0.221,0.099,0.432,0.073l0.636-0.08c-0.627,0.206-1.052,0.259-1.271,0.159c0.008,0.126,0.228,0.227,0.66,0.299
			c-0.203,0.153-0.179,0.532,0.268,0.859l-0.154,0.911l-0.676-0.553c-0.219-0.1-0.449-0.326-0.66-0.3
			c0.611-0.458,0.587-0.837,0.138-1.163c0.213-0.027,0.205-0.153,0.4-0.432l-1.907,0.24c0.252,0.605,0.285,1.109,0.285,1.109
			c-0.847,0.106-1.898,0.364-1.531-0.571c0,0,0.219,0.1,0.236,0.352c0.213-0.027-0.016-0.252-0.057-0.882l-4.871,0.613
			c0.22,0.099,0.431,0.072,0.644,0.045c-0.18,0.53-0.155,0.906-0.139,1.157c-0.423,0.053-0.423,0.053-0.414,0.178
			c-0.221-0.099-0.441-0.198-0.685-0.674l0.422-0.053c-0.22-0.099-0.025-0.377-0.033-0.502c0,0-0.211,0.027-0.644-0.045
			l-0.422,0.053c-4.873,0.613-7.821,1.235-9.058,1.893c0.244,0.47,0.261,0.718-0.594,0.578c-0.315,0.752-0.633,1.689-0.752,2.619
			l0.113,1.654c0.437,0.218,0.68,0.701,0.505,1.213l-0.008-0.124c0,0-0.428-0.093-0.42,0.03l0.153,2.24
			c0.637,0.08,0.88,0.562,0.471,0.717l0.426,0.095c-0.201,0.139-0.183,0.388,0.042,0.623c-0.209,0.014-0.409,0.153-0.628,0.044
			l-0.017-0.249c-0.217-0.109-0.217-0.109-0.226-0.234l0.28,4.105c0.229,3.359-0.186,6.508,5.479,6.409
			c1.891,0.009,5.037-0.058,9.01-0.301l3.137-0.192c0,0-0.025-0.378-0.266-0.87l0.844,0.075l0.016,0.252
			c0.016,0.253,0.024,0.378-0.386,0.531c5.444-0.542,6.84-1.09,6.979-4.298l0.09,1.518L223.754,138.901z"/>
		<path fill="#594E41" d="M340.878,186.306c-0.213,0.026-0.213,0.026,0.008,0.126l0.629,15.405c0.016,0.253-0.228-0.233-1.15-1.418
			c-0.202,0.148-0.154,0.908-0.285,2.195c0.648,0.193,1.07,0.152,1.28,0.132c0,0-0.008-0.127,0.188-0.401l0.169,2.664
			c-0.22-0.107-0.228-0.234-0.454-0.467c0.008,0.127-0.202,0.147-0.414,0.167c-0.21,0.02-0.008-0.127,0.188-0.4
			c0.202-0.147,0.202-0.147,0.194-0.274c0.008,0.127-0.202,0.147-0.202,0.147c-0.008-0.127-0.228-0.233-0.228-0.233
			c-0.154,0.907-0.323,1.561-0.081,2.047c0.43,0.087,0.64,0.068,1.053-0.099l0.209,3.298c-0.421,0.039-1.238,0.496-0.795,0.838
			c0.22,0.108,0.631-0.057,0.835-0.203l0.193,3.044c-0.228-0.235-0.244-0.488-0.252-0.616l-0.841,0.075l0.226,0.235l-0.419,0.037
			c0.21-0.019,0.226,0.235,0.25,0.615c0.242,0.488,0.25,0.614,1.084,0.414l0.161,2.537c-0.219-0.109-0.647-0.199-0.858-0.181
			c0.477,0.851,0.711,1.213,0.93,1.323l0.144,2.283l-0.227-0.236c0.008,0.126,0.008,0.126-0.202,0.144
			c-0.008-0.126-0.21,0.018-0.21,0.018c0.008,0.127,0.032,0.508,0.298,1.378l0.405-0.289l0.144,2.283l-0.211,0.017l-0.403,0.288
			c0.008,0.126,0.233,0.363,0.258,0.744c0.016,0.253,0.241,0.49,0.461,0.6l0.153,2.411c-0.203,0.143-0.195,0.269,0.032,0.507
			l0.955,15.093c0.353,5.58-0.234,6.253-6.912,6.918c0.411-0.153,0.403-0.278,0.386-0.531l-0.016-0.252l-0.844-0.075
			c0.241,0.492,0.266,0.87,0.266,0.87l-3.137,0.192c-3.974,0.244-7.119,0.31-9.01,0.301c-5.665,0.098-5.25-3.05-5.479-6.409
			l-0.28-4.106c0.009,0.125,0.009,0.125,0.226,0.235l0.017,0.249c0.219,0.109,0.42-0.029,0.629-0.044
			c-0.226-0.235-0.243-0.484-0.042-0.623l-0.426-0.095c0.409-0.155,0.167-0.637-0.471-0.717l-0.153-2.239
			c-0.008-0.124,0.42-0.03,0.42-0.03l0.008,0.124c0.175-0.513-0.068-0.995-0.505-1.213l-0.416-6.096
			c0.008,0.124,0.218,0.108,0.218,0.108c-0.008-0.124,0.194-0.265,0.203-0.141c0.201-0.14,0.184-0.39-0.034-0.497
			c-0.017-0.249-0.237-0.357-0.034-0.499c-0.211,0.017-0.42,0.033-0.429-0.091l-0.399-5.847l0.209-0.017
			c-0.009-0.125-0.017-0.249,0.194-0.267c0.209-0.018-0.008-0.124-0.237-0.356c-0.227-0.232-0.235-0.356-0.235-0.356l-0.221-3.235
			c0.21-0.018,0.43,0.089,0.43,0.089c-0.22-0.107-0.228-0.231-0.245-0.48c-0.227-0.23-0.235-0.355-0.244-0.479l-0.416-6.096
			l0.184-0.393c0,0-0.21,0.019-0.218-0.105l-0.671-9.828c0.202-0.146,0.193-0.27,0.193-0.27l-0.219-0.103l-0.358-9.003
			c-0.187-2.737-0.095-4.505,0.711-5.233c0.864,0.143,0.847-0.106,0.602-0.577c1.237-0.658,4.185-1.28,9.058-1.893l0.422-0.053
			c0.433,0.072,0.644,0.045,0.644,0.045c0.008,0.126-0.186,0.403,0.033,0.502l-0.422,0.053c0.244,0.476,0.464,0.575,0.685,0.674
			c-0.008-0.126-0.008-0.126,0.414-0.178c-0.017-0.251-0.041-0.628,0.139-1.157c-0.213,0.027-0.424,0.053-0.644-0.045l4.871-0.613
			c0.041,0.63,0.27,0.855,0.057,0.882c-0.016-0.252-0.236-0.352-0.236-0.352c-0.367,0.935,0.685,0.677,1.531,0.571
			c0,0-0.033-0.504-0.285-1.109l1.907-0.24c-0.195,0.28-0.187,0.406-0.4,0.432c0.449,0.326,0.473,0.705-0.138,1.163
			c0.211-0.026,0.44,0.2,0.66,0.3l0.676,0.553l0.154-0.911c-0.447-0.327-0.471-0.706-0.268-0.859c-0.432-0.073-0.652-0.173-0.66-0.3
			c0.219,0.1,0.644,0.047,1.271-0.159l-0.635,0.08c-0.211,0.026-0.424,0.053-0.432-0.073c0.197-0.28,0.408-0.306,0.627-0.206
			c0.635-0.08,1.068-0.006,1.5,0.067c0.227,0.227,0.235,0.353,0.887,0.527c-0.008-0.127-0.008-0.127,0.195-0.28
			c0.008,0.127,0.016,0.254,0.227,0.227l-0.008-0.127c1.327,0.728,1.407,1.997,1.733,3.746l0.385,6.088l-0.213,0.025
			c0.016,0.253,0.024,0.38-0.179,0.532"/>
		<path fill="#594E41" d="M315.944,175.579l-0.02-0.009l0.004,0.073C315.943,175.605,315.944,175.579,315.944,175.579z"/>
		<path fill="#594E41" d="M317.623,197.434c-0.22-0.107-0.228-0.231-0.246-0.48c-0.158-0.16-0.207-0.268-0.227-0.362l0.043,0.753
			C317.403,197.327,317.623,197.434,317.623,197.434z"/>
		<path fill="#594E41" d="M316.902,189.987c0,0-0.07,0.003-0.131-0.016l0.015,0.264L316.902,189.987z"/>
		<path fill="#594E41" d="M317.134,196.475c0.003,0.038,0.007,0.076,0.016,0.117l-0.365-6.358l-0.068,0.145L317.134,196.475z"/>
		<path fill="#594E41" d="M340.031,170.814c0.014-0.666-0.018-1.437-0.075-2.338l-0.109-1.727l-0.145-3.199l0.112-0.013
			l-0.385-6.088c-0.001-0.008-0.003-0.015-0.004-0.023l-0.007-0.148c-0.009-0.004-0.013-0.006-0.022-0.01
			c-0.007-0.038-0.013-0.074-0.02-0.112c0.013-0.002,0.019-0.003,0.034-0.005l-0.02-0.324c-0.047-0.149-0.092-0.295-0.137-0.429
			l0.002,0.084c-0.01-0.057-0.021-0.115-0.031-0.171c-0.414-1.226-0.736-1.839-0.736-1.839l-0.411-0.513
			c-0.116-0.091-0.238-0.178-0.381-0.257l0.008,0.127c-0.211,0.026-0.219-0.101-0.227-0.227c-0.203,0.153-0.203,0.153-0.195,0.28
			c-0.652-0.174-0.66-0.3-0.887-0.527c-0.432-0.073-0.865-0.146-1.5-0.066c-0.219-0.1-0.431-0.074-0.627,0.206
			c0.008,0.126,0.221,0.099,0.432,0.073l0.635-0.08c-0.627,0.206-1.052,0.259-1.271,0.159c0.008,0.126,0.228,0.227,0.66,0.299
			c-0.203,0.153-0.179,0.532,0.268,0.859l-0.154,0.911l-0.676-0.553c-0.219-0.1-0.449-0.326-0.66-0.3
			c0.611-0.458,0.587-0.837,0.138-1.163c0.213-0.027,0.205-0.153,0.4-0.432l-1.907,0.24c0.252,0.605,0.285,1.109,0.285,1.109
			c-0.847,0.106-1.898,0.364-1.531-0.571c0,0,0.219,0.1,0.236,0.352c0.213-0.027-0.016-0.252-0.057-0.882l-4.871,0.613
			c0.22,0.099,0.431,0.072,0.644,0.045c-0.18,0.53-0.155,0.906-0.139,1.157c-0.423,0.053-0.423,0.053-0.414,0.178
			c-0.221-0.099-0.441-0.198-0.685-0.674l0.422-0.053c-0.22-0.099-0.025-0.377-0.033-0.502c0,0-0.211,0.027-0.644-0.045
			l-0.422,0.053c-4.873,0.613-7.821,1.235-9.058,1.893c0.244,0.47,0.261,0.718-0.594,0.578c-0.315,0.752-0.633,1.689-0.752,2.619
			l0.113,1.654c0.437,0.218,0.68,0.701,0.505,1.213l-0.008-0.124c0,0-0.428-0.093-0.42,0.03l0.153,2.24
			c0.637,0.08,0.88,0.562,0.471,0.717l0.426,0.095c-0.201,0.139-0.183,0.388,0.042,0.623c-0.209,0.014-0.409,0.153-0.628,0.044
			l-0.017-0.249c-0.217-0.109-0.217-0.109-0.226-0.234l0.28,4.105c0.229,3.359-0.186,6.508,5.479,6.409
			c1.891,0.009,5.037-0.058,9.01-0.301l3.137-0.192c0,0-0.025-0.378-0.266-0.87l0.844,0.075l0.016,0.252
			c0.016,0.253,0.024,0.378-0.386,0.531c5.444-0.542,6.84-1.09,6.979-4.298l0.09,1.518L340.031,170.814z"/>
	</g>
</g>
</svg>
